<svg xmlns="http://www.w3.org/2000/svg" xmlns:xlink="http://www.w3.org/1999/xlink" width="180" zoomAndPan="magnify" viewBox="0 0 135 135.000003" height="180" preserveAspectRatio="xMidYMid meet" version="1.0"><defs><filter x="0%" y="0%" width="100%" height="100%" id="d11510bb38"><feColorMatrix values="0 0 0 0 1 0 0 0 0 1 0 0 0 0 1 0 0 0 1 0" color-interpolation-filters="sRGB"/></filter><clipPath id="7d7b57604b"><path d="M 36 97 L 99 97 L 99 124.9375 L 36 124.9375 Z M 36 97 " clip-rule="nonzero"/></clipPath><clipPath id="9142ecaaaf"><path d="M 34 123 L 101 123 L 101 124.9375 L 34 124.9375 Z M 34 123 " clip-rule="nonzero"/></clipPath><clipPath id="f1d0c304fb"><path d="M 1 92 L 50 92 L 50 124.9375 L 1 124.9375 Z M 1 92 " clip-rule="nonzero"/></clipPath><clipPath id="f3f0804d0f"><path d="M 85 93 L 133 93 L 133 124.9375 L 85 124.9375 Z M 85 93 " clip-rule="nonzero"/></clipPath><clipPath id="a41c8ef8cd"><path d="M 1 35 L 133 35 L 133 124.9375 L 1 124.9375 Z M 1 35 " clip-rule="nonzero"/></clipPath><mask id="d90466dc76"><g filter="url(#d11510bb38)"><rect x="-13.5" width="162" fill="#000000" y="-13.5" height="162.000004" fill-opacity="0.3"/></g></mask><clipPath id="72bd9f09ee"><path d="M 7 0.0195312 L 22 0.0195312 L 22 51 L 7 51 Z M 7 0.0195312 " clip-rule="nonzero"/></clipPath><clipPath id="eb467c44a8"><path d="M 0.925781 57 L 49 57 L 49 89.9375 L 0.925781 89.9375 Z M 0.925781 57 " clip-rule="nonzero"/></clipPath><clipPath id="4bc2293752"><path d="M 84 58 L 131.957031 58 L 131.957031 89.9375 L 84 89.9375 Z M 84 58 " clip-rule="nonzero"/></clipPath><clipPath id="0ed4d0280e"><rect x="0" width="132" y="0" height="90"/></clipPath><clipPath id="f31a28a8b6"><path d="M 3 11 L 123 11 L 123 124.9375 L 3 124.9375 Z M 3 11 " clip-rule="nonzero"/></clipPath><mask id="ac6fe64153"><g filter="url(#d11510bb38)"><rect x="-13.5" width="162" fill="#000000" y="-13.5" height="162.000004" fill-opacity="0.3"/></g></mask><clipPath id="3239e278d3"><path d="M 12 0.671875 L 94 0.671875 L 94 88 L 12 88 Z M 12 0.671875 " clip-rule="nonzero"/></clipPath><clipPath id="28b2bd9db2"><path d="M 111 25 L 119.949219 25 L 119.949219 72 L 111 72 Z M 111 25 " clip-rule="nonzero"/></clipPath><clipPath id="c24d189a4d"><path d="M 0.355469 109 L 24 109 L 24 113.9375 L 0.355469 113.9375 Z M 0.355469 109 " clip-rule="nonzero"/></clipPath><clipPath id="016f0d6514"><path d="M 82 81 L 119.949219 81 L 119.949219 113.9375 L 82 113.9375 Z M 82 81 " clip-rule="nonzero"/></clipPath><clipPath id="1fd7653c2c"><rect x="0" width="120" y="0" height="114"/></clipPath><clipPath id="4f6c088325"><path d="M 36 99 L 99 99 L 99 124.9375 L 36 124.9375 Z M 36 99 " clip-rule="nonzero"/></clipPath><mask id="6d6b5afcb3"><g filter="url(#d11510bb38)"><rect x="-13.5" width="162" fill="#000000" y="-13.5" height="162.000004" fill-opacity="0.3"/></g></mask><clipPath id="b41bd17e7d"><path d="M 0.230469 1 L 62.410156 1 L 62.410156 25.9375 L 0.230469 25.9375 Z M 0.230469 1 " clip-rule="nonzero"/></clipPath><clipPath id="68042cc754"><rect x="0" width="63" y="0" height="26"/></clipPath><clipPath id="ad479f427c"><path d="M 1 17 L 133 17 L 133 124.9375 L 1 124.9375 Z M 1 17 " clip-rule="nonzero"/></clipPath><mask id="4a6828e955"><g filter="url(#d11510bb38)"><rect x="-13.5" width="162" fill="#000000" y="-13.5" height="162.000004" fill-opacity="0.35"/></g></mask><clipPath id="9dddeda4dd"><path d="M 1 100 L 28 100 L 28 107.9375 L 1 107.9375 Z M 1 100 " clip-rule="nonzero"/></clipPath><clipPath id="0c161c6c76"><path d="M 36 107 L 96 107 L 96 107.9375 L 36 107.9375 Z M 36 107 " clip-rule="nonzero"/></clipPath><clipPath id="5e55aabf0c"><path d="M 104 81 L 131.957031 81 L 131.957031 107.9375 L 104 107.9375 Z M 104 81 " clip-rule="nonzero"/></clipPath><clipPath id="8bc8f31240"><rect x="0" width="132" y="0" height="108"/></clipPath><mask id="9c7c0e4b03"><g filter="url(#d11510bb38)"><rect x="-13.5" width="162" fill="#000000" y="-13.5" height="162.000004" fill-opacity="0.3"/></g></mask><clipPath id="01decedf86"><path d="M 0.351562 1 L 22.984375 1 L 22.984375 31.714844 L 0.351562 31.714844 Z M 0.351562 1 " clip-rule="nonzero"/></clipPath><clipPath id="fdcb2c51ce"><rect x="0" width="23" y="0" height="32"/></clipPath><mask id="16efbf4de0"><g filter="url(#d11510bb38)"><rect x="-13.5" width="162" fill="#000000" y="-13.5" height="162.000004" fill-opacity="0.3"/></g></mask><clipPath id="4f17e23b66"><path d="M 0.351562 1 L 22.984375 1 L 22.984375 31.714844 L 0.351562 31.714844 Z M 0.351562 1 " clip-rule="nonzero"/></clipPath><clipPath id="de084324d4"><rect x="0" width="23" y="0" height="32"/></clipPath><mask id="2b8b636dcf"><g filter="url(#d11510bb38)"><rect x="-13.5" width="162" fill="#000000" y="-13.5" height="162.000004" fill-opacity="0.4"/></g></mask><clipPath id="e78ff3ca49"><path d="M 0.542969 0.554688 L 20.554688 0.554688 L 20.554688 27.714844 L 0.542969 27.714844 Z M 0.542969 0.554688 " clip-rule="nonzero"/></clipPath><clipPath id="ba6f4ee5b1"><rect x="0" width="21" y="0" height="28"/></clipPath><mask id="8a8971051d"><g filter="url(#d11510bb38)"><rect x="-13.5" width="162" fill="#000000" y="-13.5" height="162.000004" fill-opacity="0.3"/></g></mask><clipPath id="883f5f5ff8"><path d="M 0.46875 1 L 23 1 L 23 31.714844 L 0.46875 31.714844 Z M 0.46875 1 " clip-rule="nonzero"/></clipPath><clipPath id="e380cc06b7"><rect x="0" width="24" y="0" height="32"/></clipPath><mask id="19c788070c"><g filter="url(#d11510bb38)"><rect x="-13.5" width="162" fill="#000000" y="-13.5" height="162.000004" fill-opacity="0.3"/></g></mask><clipPath id="960a8fe34f"><path d="M 0.46875 1 L 23 1 L 23 31.714844 L 0.46875 31.714844 Z M 0.46875 1 " clip-rule="nonzero"/></clipPath><clipPath id="8a1d073176"><rect x="0" width="24" y="0" height="32"/></clipPath><mask id="0941abb747"><g filter="url(#d11510bb38)"><rect x="-13.5" width="162" fill="#000000" y="-13.5" height="162.000004" fill-opacity="0.4"/></g></mask><clipPath id="b0c95d7e90"><path d="M 0.660156 0.554688 L 20.671875 0.554688 L 20.671875 27.714844 L 0.660156 27.714844 Z M 0.660156 0.554688 " clip-rule="nonzero"/></clipPath><clipPath id="01f91ebe24"><rect x="0" width="21" y="0" height="28"/></clipPath><clipPath id="a6919aa69b"><path d="M 115 123 L 124 123 L 124 124.9375 L 115 124.9375 Z M 115 123 " clip-rule="nonzero"/></clipPath><clipPath id="ac98d76d25"><path d="M 111 122 L 132 122 L 132 124.9375 L 111 124.9375 Z M 111 122 " clip-rule="nonzero"/></clipPath><clipPath id="d52274c1e2"><path d="M 110 120 L 132 120 L 132 124.9375 L 110 124.9375 Z M 110 120 " clip-rule="nonzero"/></clipPath><clipPath id="b2b35851f7"><path d="M 11 123 L 20 123 L 20 124.9375 L 11 124.9375 Z M 11 123 " clip-rule="nonzero"/></clipPath><clipPath id="896807050b"><path d="M 1 10 L 134 10 L 134 124.9375 L 1 124.9375 Z M 1 10 " clip-rule="nonzero"/></clipPath><clipPath id="ae7f62360e"><path d="M 35 97 L 100 97 L 100 124.9375 L 35 124.9375 Z M 35 97 " clip-rule="nonzero"/></clipPath><clipPath id="3309fcf84d"><path d="M 3 122 L 24 122 L 24 124.9375 L 3 124.9375 Z M 3 122 " clip-rule="nonzero"/></clipPath><clipPath id="56ba522956"><path d="M 3 120 L 25 120 L 25 124.9375 L 3 124.9375 Z M 3 120 " clip-rule="nonzero"/></clipPath></defs><g clip-path="url(#7d7b57604b)"><path fill="#0088ff" d="M 49.042969 98.277344 C 54.832031 101.15625 61.09375 103.296875 67.554688 103.574219 C 74.011719 103.851562 80.699219 102.132812 85.617188 98.027344 C 88.40625 98.605469 91.144531 99.433594 93.660156 100.871094 C 96.089844 107.074219 97.742188 113.582031 98.570312 120.191406 C 98.695312 121.21875 98.777344 122.359375 98.15625 123.183594 C 97.535156 124.007812 96.421875 124.246094 95.40625 124.421875 C 75.851562 127.753906 55.664062 127.796875 36.320312 123.394531 C 37.257812 115.546875 38.875 107.78125 41.175781 100.242188 C 43.710938 99.070312 46.722656 97.125 49.042969 98.28125 Z M 49.042969 98.277344 " fill-opacity="1" fill-rule="nonzero"/></g><path fill="#0088ff" d="M 127.6875 75.3125 C 132.851562 66.929688 133.050781 52.992188 129.011719 42.480469 C 127.347656 40.542969 125.421875 39.347656 123.382812 38.546875 C 121.347656 37.746094 119.1875 37.316406 117.042969 36.886719 C 105.953125 21.476562 87.121094 11.78125 68.019531 11.726562 C 48.917969 11.671875 30.03125 21.261719 18.800781 36.710938 C 14.210938 36.890625 10.085938 38.539062 6.742188 41.1875 C 2.488281 51.804688 2.679688 64.128906 6.992188 74.855469 C 11.257812 78.542969 16.019531 81.3125 21.019531 83.5625 C 34.226562 92.933594 50.339844 97.792969 66.515625 97.925781 C 82.691406 98.058594 98.878906 93.460938 112.828125 84.527344 C 118.378906 82.15625 125.929688 78.171875 127.691406 75.3125 Z M 127.6875 75.3125 " fill-opacity="1" fill-rule="nonzero"/><path fill="#0088ff" d="M 28.855469 107.652344 C 25.015625 110.925781 23.179688 116.382812 24.261719 121.3125 C 21.460938 118.9375 17.925781 117.445312 14.273438 117.09375 C 10.617188 116.742188 6.863281 117.53125 3.660156 119.328125 C 4.457031 114.488281 6.789062 110.03125 9.46875 105.921875 C 10.433594 104.441406 11.457031 102.980469 12.753906 101.777344 C 14.046875 100.574219 15.640625 99.632812 17.359375 99.3125 C 21.835938 101.246094 25.914062 104.105469 28.855469 107.648438 Z M 28.855469 107.652344 " fill-opacity="1" fill-rule="nonzero"/><path fill="#0088ff" d="M 106.261719 107.246094 C 108.449219 104.828125 111.207031 103.015625 113.933594 101.230469 C 114.992188 100.539062 116.101562 99.828125 117.359375 99.707031 C 118.5625 99.59375 119.757812 100.046875 120.789062 100.675781 C 123.671875 102.433594 125.484375 105.484375 127.117188 108.441406 C 128.992188 111.847656 130.820312 115.390625 131.304688 119.25 C 127.988281 117.574219 124.175781 116.894531 120.484375 117.3125 C 116.792969 117.734375 113.234375 119.261719 110.378906 121.640625 C 111.527344 119.234375 111.449219 116.351562 110.519531 113.847656 C 109.59375 111.347656 107.878906 109.195312 105.894531 107.414062 C 106.09375 107.25 106.289062 107.085938 106.265625 107.246094 Z M 106.261719 107.246094 " fill-opacity="1" fill-rule="nonzero"/><path fill="#002c66" d="M 70 37.816406 C 79.902344 38.421875 89.804688 39.027344 99.707031 39.632812 C 102.785156 39.824219 106.070312 40.085938 108.503906 41.976562 C 111.300781 44.152344 112.25 47.898438 112.921875 51.375 C 113.75 55.648438 114.433594 59.996094 114.15625 64.34375 C 113.882812 68.6875 112.585938 73.074219 109.828125 76.445312 C 106.976562 79.929688 102.816406 82.070312 98.648438 83.777344 C 79.511719 91.597656 57.433594 92.007812 38.066406 84.777344 C 32.511719 82.703125 26.894531 79.777344 23.789062 74.722656 C 20.28125 69.011719 20.671875 61.820312 21.175781 55.136719 C 21.523438 50.542969 22.128906 45.425781 25.675781 42.484375 C 27.953125 40.589844 31.015625 40.003906 33.945312 39.5625 C 46.214844 37.714844 58.707031 37.125 70 37.816406 Z M 70 37.816406 " fill-opacity="1" fill-rule="nonzero"/><g clip-path="url(#9142ecaaaf)"><path fill="#002c66" d="M 97.242188 123.859375 C 92.285156 125.320312 87.160156 126.203125 82.003906 126.15625 C 66.957031 127.289062 51.589844 127.304688 37.085938 123.152344 C 38.007812 125.753906 38.53125 128.492188 38.707031 131.261719 C 37.300781 133.359375 35.894531 135.457031 34.449219 137.792969 C 37.117188 137.804688 39.773438 138.53125 42.074219 139.875 C 43.558594 140.746094 44.894531 141.867188 46.460938 142.589844 C 48.023438 143.308594 49.941406 143.566406 51.457031 142.746094 C 52.578125 141.144531 52.84375 138.976562 52.140625 137.15625 C 53.667969 137.386719 55.234375 137.375 56.761719 137.109375 C 57.171875 138.546875 58.617188 139.417969 60.003906 139.972656 C 66.042969 142.390625 73.332031 141.351562 78.457031 137.34375 C 79.976562 137.695312 81.589844 137.652344 83.019531 137.21875 C 82.882812 138.109375 82.601562 138.984375 82.53125 139.882812 C 82.457031 140.785156 82.636719 141.765625 83.277344 142.402344 C 83.765625 142.882812 84.457031 143.101562 85.140625 143.167969 C 86.808594 143.328125 88.449219 142.65625 89.902344 141.820312 C 91.355469 140.988281 92.71875 139.96875 94.269531 139.328125 C 96.203125 138.527344 98.335938 138.351562 100.429688 138.285156 C 99.390625 135.683594 97.566406 133.394531 95.261719 131.796875 L 97.238281 123.859375 Z M 97.242188 123.859375 " fill-opacity="1" fill-rule="nonzero"/></g><path fill="#002c66" d="M 116.753906 36.191406 C 121.570312 51.488281 120.980469 68.429688 115.109375 83.355469 C 118.414062 81.78125 121.464844 79.734375 124.550781 77.722656 C 125.359375 71.96875 126.132812 66.195312 126.316406 60.390625 C 126.539062 53.324219 125.890625 46.234375 124.746094 39.171875 C 122.296875 37.542969 119.375 36.628906 116.753906 36.191406 Z M 116.753906 36.191406 " fill-opacity="1" fill-rule="nonzero"/><path fill="#002c66" d="M 19.671875 35.160156 C 13.183594 51.1875 14.246094 70.089844 22.496094 85.285156 C 18.28125 83.09375 14.234375 80.585938 10.394531 77.796875 C 10.402344 77.804688 10.40625 77.816406 10.410156 77.792969 C 8.109375 65.132812 8.003906 52.074219 10.085938 39.289062 C 13.070312 37.761719 16.222656 36.566406 19.671875 35.160156 Z M 19.671875 35.160156 " fill-opacity="1" fill-rule="nonzero"/><g clip-path="url(#f1d0c304fb)"><path fill="#002c66" d="M 49.164062 98.132812 C 46.308594 98.59375 43.507812 99.394531 40.84375 100.519531 C 40.089844 106.878906 37.042969 112.792969 36.277344 119.152344 C 32.445312 121.660156 28.160156 123.480469 23.613281 124.746094 C 23.855469 125.300781 23.71875 126 23.269531 126.5 C 24.574219 127.105469 25.898438 127.722656 26.96875 128.675781 C 28.039062 129.632812 28.847656 130.992188 28.792969 132.425781 C 28.746094 133.761719 27.984375 134.960938 27.097656 135.960938 C 26.339844 136.824219 25.453125 137.601562 24.394531 138.042969 C 23.335938 138.484375 22.082031 138.554688 21.058594 138.039062 C 21.304688 139.289062 20.488281 140.570312 19.375 141.195312 C 18.261719 141.820312 16.925781 141.898438 15.65625 141.808594 C 11.65625 141.523438 7.777344 139.613281 5.210938 136.535156 C 2.648438 133.457031 1.464844 129.238281 2.183594 125.292969 C 2.390625 124.144531 2.804688 122.953125 3.570312 122.230469 C 3.351562 121.285156 3.34375 120.285156 3.554688 119.335938 C 6.894531 117.511719 10.746094 116.515625 14.53125 116.890625 C 18.320312 117.261719 22.015625 119.082031 24.332031 122.105469 C 23.617188 119.460938 23.683594 116.617188 24.519531 114.007812 C 25.355469 111.402344 26.960938 109.050781 28.921875 107.25 C 25.664062 104.015625 21.78125 101.410156 17.550781 99.617188 C 17.925781 99.269531 18.175781 98.78125 18.238281 98.273438 C 20.230469 98.128906 22.253906 98.496094 24.015625 99.289062 C 26.949219 96.910156 30.910156 95.839844 34.648438 96.386719 C 34.726562 95.890625 34.65625 95.378906 34.457031 94.921875 C 36.066406 94.710938 37.609375 93.984375 38.792969 92.867188 C 42.121094 93.550781 45.355469 94.671875 48.390625 96.199219 C 48.769531 96.386719 49.164062 96.601562 49.390625 96.964844 C 49.613281 97.328125 49.648438 98.050781 49.164062 98.132812 Z M 49.164062 98.132812 " fill-opacity="1" fill-rule="nonzero"/></g><g clip-path="url(#f3f0804d0f)"><path fill="#002c66" d="M 85.75 96.847656 C 89.324219 95.847656 92.847656 94.65625 96.292969 93.277344 C 97.457031 94.164062 98.828125 94.777344 100.261719 95.054688 C 100.164062 95.539062 100.0625 96.027344 99.964844 96.515625 C 103.796875 95.417969 108.191406 96.625 110.898438 99.554688 C 112.570312 98.667969 114.488281 98.25 116.375 98.355469 C 116.589844 98.785156 116.804688 99.21875 117.019531 99.648438 C 112.75 101.214844 109.34375 104.457031 106.070312 107.613281 C 110.222656 110.773438 112.164062 116.566406 110.5 121.703125 C 113.191406 119.128906 116.730469 117.460938 120.425781 117.027344 C 124.125 116.589844 127.953125 117.390625 131.019531 119.519531 C 131.082031 120.375 131.144531 121.230469 131.207031 122.089844 C 131.980469 122.429688 132.472656 123.234375 132.65625 124.058594 C 132.839844 124.882812 132.757812 125.742188 132.671875 126.582031 C 132.425781 128.980469 132.132812 131.394531 131.324219 133.660156 C 130.515625 135.929688 129.140625 138.066406 127.121094 139.382812 C 125.449219 140.472656 123.457031 140.933594 121.5 141.316406 C 119.785156 141.652344 117.980469 141.941406 116.3125 141.421875 C 114.640625 140.902344 113.171875 139.320312 113.367188 137.585938 C 112.074219 138.402344 110.355469 137.886719 109.039062 137.105469 C 107.921875 136.445312 106.890625 135.578125 106.269531 134.441406 C 105.648438 133.304688 105.496094 131.863281 106.097656 130.714844 C 107.214844 128.578125 110.351562 128.191406 111.511719 126.074219 C 111.40625 125.609375 111.304688 125.148438 111.15625 124.699219 C 106.714844 123.480469 102.476562 121.542969 98.539062 119.011719 C 97.445312 113.875 96.347656 108.738281 95.25 103.605469 C 95.054688 102.6875 94.835938 101.722656 94.207031 101.023438 C 93.539062 100.285156 92.535156 99.976562 91.582031 99.699219 C 89.835938 99.191406 88.089844 98.683594 86.34375 98.175781 C 85.988281 98.070312 85.609375 97.953125 85.382812 97.664062 C 85.152344 97.371094 85.207031 97 85.746094 96.847656 Z M 85.75 96.847656 " fill-opacity="1" fill-rule="nonzero"/></g><path fill="#002c66" d="M 49.820312 96.066406 C 58.480469 97.914062 67.398438 98.53125 76.230469 97.890625 C 79.035156 97.6875 81.859375 97.351562 84.511719 96.417969 C 84.796875 97.144531 85.082031 97.867188 85.367188 98.59375 C 79.945312 101.847656 73.621094 103.582031 67.296875 103.554688 C 60.972656 103.527344 54.667969 101.738281 49.269531 98.441406 C 49.976562 97.800781 50.269531 96.742188 49.820312 96.066406 Z M 49.820312 96.066406 " fill-opacity="1" fill-rule="nonzero"/><path fill="#002c66" d="M 50.703125 116.117188 C 61.996094 115.570312 73.3125 115.460938 84.617188 115.789062 C 83.558594 117.230469 82.316406 118.539062 80.933594 119.671875 L 53.71875 119.621094 Z M 50.703125 116.117188 " fill-opacity="1" fill-rule="nonzero"/><path fill="#000000" d="M 46.28125 106.105469 C 47.359375 105.097656 49.085938 104.859375 50.394531 105.539062 C 51.707031 106.214844 52.511719 107.757812 52.316406 109.222656 C 52.121094 110.683594 50.9375 111.960938 49.496094 112.269531 C 48.050781 112.578125 46.449219 111.894531 45.671875 110.640625 C 44.898438 109.386719 44.816406 107.472656 46.28125 106.105469 Z M 46.28125 106.105469 " fill-opacity="1" fill-rule="nonzero"/><path fill="#000000" d="M 84.398438 105.601562 C 85.628906 104.964844 87.226562 105.125 88.304688 105.996094 C 89.382812 106.867188 89.878906 108.394531 89.515625 109.730469 C 89.277344 110.621094 88.671875 111.410156 87.867188 111.855469 C 87.058594 112.300781 86.054688 112.382812 85.195312 112.054688 C 84.578125 111.820312 84.054688 111.390625 83.605469 110.914062 C 83.179688 110.460938 82.800781 109.945312 82.601562 109.355469 C 82.335938 108.574219 82.414062 107.699219 82.742188 106.945312 C 83.070312 106.191406 83.640625 105.558594 84.398438 105.601562 Z M 84.398438 105.601562 " fill-opacity="1" fill-rule="nonzero"/><g clip-path="url(#a41c8ef8cd)"><g mask="url(#d90466dc76)"><g transform="matrix(1, 0, 0, 1, 1, 35)"><g clip-path="url(#0ed4d0280e)"><path fill="#000000" d="M 115.753906 1.191406 C 120.570312 16.488281 119.980469 33.429688 114.109375 48.355469 C 117.414062 46.78125 120.464844 44.734375 123.550781 42.722656 C 124.359375 36.96875 125.132812 31.195312 125.316406 25.390625 C 125.539062 18.324219 124.890625 11.234375 123.746094 4.171875 C 121.296875 2.542969 118.375 1.628906 115.753906 1.191406 Z M 115.753906 1.191406 " fill-opacity="1" fill-rule="nonzero"/><g clip-path="url(#72bd9f09ee)"><path fill="#000000" d="M 18.671875 0.160156 C 12.183594 16.1875 13.246094 35.089844 21.496094 50.285156 C 17.28125 48.09375 13.234375 45.585938 9.394531 42.796875 C 9.402344 42.804688 9.40625 42.816406 9.410156 42.792969 C 7.109375 30.132812 7.003906 17.074219 9.085938 4.289062 C 12.070312 2.761719 15.222656 1.566406 18.671875 0.160156 Z M 18.671875 0.160156 " fill-opacity="1" fill-rule="nonzero"/></g><g clip-path="url(#eb467c44a8)"><path fill="#000000" d="M 48.164062 63.132812 C 45.308594 63.59375 42.507812 64.394531 39.84375 65.519531 C 39.089844 71.878906 36.042969 77.792969 35.277344 84.152344 C 31.445312 86.660156 27.160156 88.480469 22.613281 89.746094 C 22.855469 90.300781 22.71875 91 22.269531 91.5 C 23.574219 92.105469 24.898438 92.722656 25.96875 93.675781 C 27.039062 94.632812 27.847656 95.992188 27.792969 97.425781 C 27.746094 98.761719 26.984375 99.960938 26.097656 100.960938 C 25.339844 101.824219 24.453125 102.601562 23.394531 103.042969 C 22.335938 103.484375 21.082031 103.554688 20.058594 103.039062 C 20.304688 104.289062 19.488281 105.570312 18.375 106.195312 C 17.261719 106.820312 15.925781 106.898438 14.65625 106.808594 C 10.65625 106.523438 6.777344 104.613281 4.210938 101.535156 C 1.648438 98.457031 0.464844 94.238281 1.183594 90.292969 C 1.390625 89.144531 1.804688 87.953125 2.570312 87.230469 C 2.351562 86.285156 2.34375 85.285156 2.554688 84.335938 C 5.894531 82.511719 9.746094 81.515625 13.53125 81.890625 C 17.320312 82.261719 21.015625 84.082031 23.332031 87.105469 C 22.617188 84.460938 22.683594 81.617188 23.519531 79.007812 C 24.355469 76.402344 25.960938 74.050781 27.921875 72.25 C 24.664062 69.015625 20.78125 66.410156 16.550781 64.617188 C 16.925781 64.269531 17.175781 63.78125 17.238281 63.273438 C 19.230469 63.128906 21.253906 63.496094 23.015625 64.289062 C 25.949219 61.910156 29.910156 60.839844 33.648438 61.386719 C 33.726562 60.890625 33.65625 60.378906 33.457031 59.921875 C 35.066406 59.710938 36.609375 58.984375 37.792969 57.867188 C 41.121094 58.550781 44.355469 59.671875 47.390625 61.199219 C 47.769531 61.386719 48.164062 61.601562 48.390625 61.964844 C 48.613281 62.328125 48.648438 63.050781 48.164062 63.132812 Z M 48.164062 63.132812 " fill-opacity="1" fill-rule="nonzero"/></g><g clip-path="url(#4bc2293752)"><path fill="#000000" d="M 84.75 61.847656 C 88.324219 60.847656 91.847656 59.65625 95.292969 58.277344 C 96.457031 59.164062 97.828125 59.777344 99.261719 60.054688 C 99.164062 60.539062 99.0625 61.027344 98.964844 61.515625 C 102.796875 60.417969 107.191406 61.625 109.898438 64.554688 C 111.570312 63.667969 113.488281 63.25 115.375 63.355469 C 115.589844 63.785156 115.804688 64.21875 116.019531 64.648438 C 111.75 66.214844 108.34375 69.457031 105.070312 72.613281 C 109.222656 75.773438 111.164062 81.566406 109.5 86.703125 C 112.191406 84.128906 115.730469 82.460938 119.425781 82.027344 C 123.125 81.589844 126.953125 82.390625 130.019531 84.519531 C 130.082031 85.375 130.144531 86.230469 130.207031 87.089844 C 130.980469 87.429688 131.472656 88.234375 131.65625 89.058594 C 131.839844 89.882812 131.757812 90.742188 131.671875 91.582031 C 131.425781 93.980469 131.132812 96.394531 130.324219 98.660156 C 129.515625 100.929688 128.140625 103.066406 126.121094 104.382812 C 124.449219 105.472656 122.457031 105.933594 120.5 106.316406 C 118.785156 106.652344 116.980469 106.941406 115.3125 106.421875 C 113.640625 105.902344 112.171875 104.320312 112.367188 102.585938 C 111.074219 103.402344 109.355469 102.886719 108.039062 102.105469 C 106.921875 101.445312 105.890625 100.578125 105.269531 99.441406 C 104.648438 98.304688 104.496094 96.863281 105.097656 95.714844 C 106.214844 93.578125 109.351562 93.191406 110.511719 91.074219 C 110.40625 90.609375 110.304688 90.148438 110.15625 89.699219 C 105.714844 88.480469 101.476562 86.542969 97.539062 84.011719 C 96.445312 78.875 95.347656 73.738281 94.25 68.605469 C 94.054688 67.6875 93.835938 66.722656 93.207031 66.023438 C 92.539062 65.285156 91.535156 64.976562 90.582031 64.699219 C 88.835938 64.191406 87.089844 63.683594 85.34375 63.175781 C 84.988281 63.070312 84.609375 62.953125 84.382812 62.664062 C 84.152344 62.371094 84.207031 62 84.746094 61.847656 Z M 84.75 61.847656 " fill-opacity="1" fill-rule="nonzero"/></g><path fill="#000000" d="M 48.820312 61.066406 C 57.480469 62.914062 66.398438 63.53125 75.230469 62.890625 C 78.035156 62.6875 80.859375 62.351562 83.511719 61.417969 C 83.796875 62.144531 84.082031 62.867188 84.367188 63.59375 C 78.945312 66.847656 72.621094 68.582031 66.296875 68.554688 C 59.972656 68.527344 53.667969 66.738281 48.269531 63.441406 C 48.976562 62.800781 49.269531 61.742188 48.820312 61.066406 Z M 48.820312 61.066406 " fill-opacity="1" fill-rule="nonzero"/><path fill="#000000" d="M 49.703125 81.117188 C 60.996094 80.570312 72.3125 80.460938 83.617188 80.789062 C 82.558594 82.230469 81.316406 83.539062 79.933594 84.671875 L 52.71875 84.621094 Z M 49.703125 81.117188 " fill-opacity="1" fill-rule="nonzero"/><path fill="#000000" d="M 45.28125 71.105469 C 46.359375 70.097656 48.085938 69.859375 49.394531 70.539062 C 50.707031 71.214844 51.511719 72.757812 51.316406 74.222656 C 51.121094 75.683594 49.9375 76.960938 48.496094 77.269531 C 47.050781 77.578125 45.449219 76.894531 44.671875 75.640625 C 43.898438 74.386719 43.816406 72.472656 45.28125 71.105469 Z M 45.28125 71.105469 " fill-opacity="1" fill-rule="nonzero"/><path fill="#000000" d="M 83.398438 70.601562 C 84.628906 69.964844 86.226562 70.125 87.304688 70.996094 C 88.382812 71.867188 88.878906 73.394531 88.515625 74.730469 C 88.277344 75.621094 87.671875 76.410156 86.867188 76.855469 C 86.058594 77.300781 85.054688 77.382812 84.195312 77.054688 C 83.578125 76.820312 83.054688 76.390625 82.605469 75.914062 C 82.179688 75.460938 81.800781 74.945312 81.601562 74.355469 C 81.335938 73.574219 81.414062 72.699219 81.742188 71.945312 C 82.070312 71.191406 82.640625 70.558594 83.398438 70.601562 Z M 83.398438 70.601562 " fill-opacity="1" fill-rule="nonzero"/></g></g></g></g><g clip-path="url(#f31a28a8b6)"><g mask="url(#ac6fe64153)"><g transform="matrix(1, 0, 0, 1, 3, 11)"><g clip-path="url(#1fd7653c2c)"><g clip-path="url(#3239e278d3)"><path fill="#000000" d="M 78.632812 2.929688 C 66.390625 2.078125 53.714844 2.828125 42.527344 7.875 C 31.34375 12.925781 21.847656 22.890625 19.621094 34.917969 C 18.699219 40.398438 17.773438 45.933594 18.058594 51.484375 C 18.34375 57.03125 19.9375 62.679688 23.539062 66.914062 C 27.40625 71.464844 32.886719 73.117188 38.390625 75.433594 C 43.871094 77.738281 50.433594 80.175781 56.234375 81.484375 C 68.734375 84.300781 80.964844 82.976562 93.5 80.328125 C 78.355469 85.929688 61.867188 90.128906 46.15625 86.40625 C 36.167969 84.035156 27.214844 78.628906 18.589844 73.253906 C 15.847656 66.414062 13.078125 59.464844 12.289062 52.140625 C 11.308594 43.046875 13.429688 33.9375 15.429688 25.019531 C 22.636719 15.558594 32.632812 8.246094 43.832031 4.238281 C 55.03125 0.234375 67.394531 -0.449219 78.632812 2.929688 Z M 78.632812 2.929688 " fill-opacity="1" fill-rule="nonzero"/></g><g clip-path="url(#28b2bd9db2)"><path fill="#000000" d="M 116.382812 26.03125 C 120.914062 40.082031 120.972656 55.535156 116.488281 69.992188 L 111.492188 71.847656 C 118.105469 57.261719 118.695312 40.058594 113.105469 25.050781 C 114.214844 25.398438 115.320312 25.742188 116.382812 26.03125 Z M 116.382812 26.03125 " fill-opacity="1" fill-rule="nonzero"/></g><path fill="#000000" d="M 13.042969 26.042969 C 7.964844 39.988281 7.878906 55.691406 12.675781 69.738281 C 13.996094 70.398438 15.3125 71.058594 16.632812 71.71875 C 13.464844 64.550781 12.136719 56.648438 12.164062 48.8125 C 12.195312 40.972656 13.550781 33.183594 15.578125 25.613281 C 14.664062 25.738281 13.75 25.863281 13.042969 26.042969 Z M 13.042969 26.042969 " fill-opacity="1" fill-rule="nonzero"/><path fill="#000000" d="M 82.433594 86.367188 C 80.667969 88.742188 77.925781 90.234375 75.074219 91.019531 C 72.222656 91.800781 69.242188 91.933594 66.289062 92.042969 C 63.316406 92.15625 60.328125 92.242188 57.375 91.875 C 54.421875 91.503906 51.488281 90.652344 49.003906 89.011719 C 47.90625 88.289062 46.832031 87.273438 46.738281 85.964844 C 44.210938 87.515625 41.378906 88.5625 38.457031 89.054688 C 35.664062 95.003906 33.996094 101.476562 33.566406 108.035156 C 31.257812 109.304688 28.949219 110.578125 26.644531 111.847656 C 25.785156 112.320312 24.886719 112.804688 23.90625 112.820312 C 22.929688 112.835938 21.867188 112.203125 21.753906 111.230469 C 24.171875 108.96875 26.585938 106.710938 29.171875 104.585938 C 28.710938 102.15625 27.953125 99.785156 26.921875 97.539062 C 28.714844 99.234375 30.207031 101.246094 31.445312 103.40625 C 30.898438 99.023438 28.023438 95.335938 25.253906 91.898438 C 27.132812 92.886719 28.78125 94.3125 30.035156 95.953125 C 29.011719 93.214844 27.621094 90.613281 25.917969 88.242188 C 28.253906 87.5625 30.742188 87.394531 33.152344 87.75 C 32.652344 86.601562 32.15625 85.453125 31.65625 84.300781 C 33.015625 83.65625 34.371094 83.015625 35.832031 82.011719 C 50.960938 86.375 67.089844 88.292969 82.496094 85.058594 C 82.378906 85.703125 82.257812 86.347656 82.433594 86.371094 Z M 82.433594 86.367188 " fill-opacity="1" fill-rule="nonzero"/><g clip-path="url(#c24d189a4d)"><path fill="#000000" d="M 19.964844 109.660156 C 19.207031 109.953125 18.515625 110.417969 17.941406 111.042969 C 12.425781 109.015625 6.179688 109.03125 0.671875 111.089844 C 5.925781 111.179688 11.265625 111.28125 16.257812 112.921875 C 16.59375 112.992188 16.925781 113.058594 17.261719 113.121094 C 16.332031 112.746094 15.367188 112.457031 14.359375 112.070312 C 12.03125 112.492188 9.949219 114.082031 8.929688 116.214844 C 7.90625 118.34375 7.976562 120.964844 9.105469 123.039062 C 9.0625 121.355469 9.839844 119.738281 10.921875 118.445312 C 12.003906 117.15625 13.375 116.152344 14.734375 115.15625 C 16.15625 115.675781 17.578125 116.195312 19.074219 116.691406 C 19.382812 115.949219 20.359375 115.679688 21.132812 115.898438 C 21.90625 116.117188 22.523438 116.6875 23.101562 117.210938 C 20.945312 118.699219 19.3125 120.9375 18.550781 123.449219 C 17.546875 123.515625 16.742188 122.480469 16.699219 121.476562 C 16.652344 120.46875 17.152344 119.527344 17.667969 118.667969 C 18.21875 117.746094 18.816406 116.84375 19.558594 116.074219 C 19.957031 115.664062 20.402344 115.277344 20.648438 114.761719 C 20.894531 114.25 20.875 113.546875 20.425781 113.195312 C 21.351562 113.082031 22.277344 112.96875 23.203125 112.851562 C 22.253906 111.585938 20.996094 110.550781 19.964844 109.660156 Z M 19.964844 109.660156 " fill-opacity="1" fill-rule="nonzero"/></g><g clip-path="url(#016f0d6514)"><path fill="#000000" d="M 97.5 84.554688 C 95.960938 87.761719 95.167969 91.332031 95.203125 94.890625 C 95.398438 94.261719 95.6875 92.175781 95.882812 91.542969 C 95.882812 91.5625 95.882812 91.578125 95.878906 91.597656 C 97.085938 91.894531 98.1875 92.28125 99.339844 93.199219 C 100.242188 90.441406 101.582031 88.519531 103.773438 86.617188 C 102.195312 88.613281 101.050781 90.945312 100.4375 93.414062 C 102.121094 92.347656 103.804688 91.28125 105.488281 90.214844 C 103.441406 91.976562 101.394531 93.738281 99.453125 95.621094 C 99.5625 95.496094 99.671875 95.375 99.78125 95.25 C 99.796875 96.597656 99.816406 97.941406 99.832031 99.289062 C 100.851562 98.289062 101.875 97.292969 102.894531 96.292969 C 102.125 97.984375 101.226562 99.617188 100.203125 101.167969 C 100.929688 100.164062 101.195312 99.507812 101.800781 98.5 C 101.425781 99.871094 101.199219 101.078125 100.734375 103.035156 C 100.375 104.5625 100.332031 105.839844 100.929688 107.289062 C 101.3125 108.210938 102.019531 108.964844 102.777344 109.613281 C 104.347656 110.960938 106.957031 111.457031 108.886719 112.117188 C 111.496094 110.179688 113.675781 109.203125 116.777344 108.226562 C 117.023438 108.972656 117.265625 109.714844 117.511719 110.460938 C 116.769531 110.503906 116.035156 110.703125 115.375 111.050781 C 116.820312 110.585938 118.335938 110.324219 119.855469 110.277344 C 119.597656 110.296875 119.339844 110.3125 119.082031 110.328125 C 119.160156 110.816406 119.238281 111.308594 119.316406 111.800781 C 117.222656 111.964844 115.144531 112.28125 113.117188 112.839844 C 114.132812 112.789062 115.015625 113.152344 116 113.402344 C 115.746094 113.453125 115.636719 113.238281 115.378906 113.285156 C 116.28125 113.964844 117.1875 114.644531 118.074219 115.300781 C 115.777344 115.65625 113.574219 116.628906 111.699219 118.136719 C 111.003906 116.976562 109.964844 116.03125 108.710938 115.53125 L 108.578125 113.425781 C 103.96875 112.507812 99.574219 110.550781 95.699219 107.824219 C 94.65625 101.53125 93.085938 95.324219 90.855469 89.378906 C 88.15625 88.535156 85.347656 88.039062 82.523438 87.910156 C 82.6875 87.089844 82.636719 86.230469 82.378906 85.433594 C 86.5 84.183594 90.570312 82.742188 94.558594 81.117188 C 94.328125 81.089844 94.097656 81.0625 93.867188 81.039062 C 94.707031 82.566406 96.007812 83.835938 97.503906 84.554688 Z M 97.5 84.554688 " fill-opacity="1" fill-rule="nonzero"/></g><path fill="#000000" d="M 86.574219 98.183594 C 86.363281 97.117188 85.550781 96.175781 84.511719 95.855469 C 83.46875 95.539062 82.242188 95.882812 81.558594 96.730469 C 80.871094 97.578125 80.804688 98.882812 81.433594 99.769531 C 82.019531 100.597656 83.050781 100.972656 84.039062 101.179688 C 83.109375 101.117188 82.171875 100.925781 81.371094 100.449219 C 80.570312 99.972656 79.921875 99.183594 79.769531 98.261719 C 79.601562 97.25 80.050781 96.21875 80.703125 95.421875 C 81.40625 94.570312 82.414062 93.894531 83.519531 93.871094 C 84.519531 93.847656 85.5 94.375 86.089844 95.179688 C 86.683594 95.984375 86.898438 97.039062 86.574219 98.183594 Z M 86.574219 98.183594 " fill-opacity="1" fill-rule="nonzero"/><path fill="#000000" d="M 45.449219 101.113281 C 44.242188 100.730469 43.40625 99.417969 43.570312 98.160156 C 43.730469 96.90625 44.875 95.847656 46.140625 95.785156 C 47.402344 95.71875 48.648438 96.65625 48.9375 97.886719 C 49.15625 96.492188 48.28125 95.019531 46.972656 94.488281 C 45.664062 93.957031 44.046875 94.375 43.117188 95.433594 C 42.183594 96.492188 41.960938 98.105469 42.519531 99.40625 C 43.074219 100.703125 44.359375 101.640625 45.449219 101.113281 Z M 45.449219 101.113281 " fill-opacity="1" fill-rule="nonzero"/><path fill="#000000" d="M 49.449219 107.144531 C 49.449219 107.144531 77.085938 107.1875 76.992188 107.199219 C 77.75 106.53125 78.46875 105.699219 79.09375 104.835938 C 79.851562 104.910156 80.613281 104.921875 81.375 104.875 C 80.5625 106.296875 79.46875 107.554688 78.171875 108.558594 L 50.519531 108.578125 Z M 49.449219 107.144531 " fill-opacity="1" fill-rule="nonzero"/><path fill="#000000" d="M 83.796875 27.996094 C 89.355469 25.738281 96.046875 27.351562 100.574219 31.285156 C 105.105469 35.21875 105.84375 41.855469 106.414062 47.824219 C 106.90625 52.984375 106.257812 58.628906 103.777344 63.175781 C 100.476562 69.238281 96.25 71.851562 89.933594 73.96875 C 83.707031 76.050781 77.1875 77.042969 70.667969 77.835938 C 77.425781 77.433594 84.25 77.019531 90.742188 75.09375 C 97.230469 73.167969 103.445312 69.5625 107.242188 63.960938 C 113.015625 55.441406 112.195312 44.082031 109.640625 33.972656 C 102.203125 28.144531 92.164062 27.222656 83.796875 27.996094 Z M 83.796875 27.996094 " fill-opacity="1" fill-rule="nonzero"/><path fill="#000000" d="M 40.390625 28.597656 C 37.71875 28.792969 35.019531 28.992188 32.472656 29.808594 C 29.921875 30.625 27.5 32.128906 26.097656 34.410156 C 24.894531 36.367188 24.539062 38.714844 24.210938 40.988281 C 23.273438 47.457031 22.351562 54.191406 24.316406 60.425781 C 26.335938 66.84375 31.496094 72.191406 37.835938 74.441406 C 32.296875 72.554688 26.453125 70.460938 22.757812 65.917969 C 18.246094 60.363281 18.050781 52.578125 18.066406 45.421875 C 18.074219 41.597656 18.15625 37.523438 20.265625 34.335938 C 22.269531 31.3125 25.832031 29.605469 29.417969 29.039062 C 33 28.472656 36.65625 28.902344 40.386719 28.597656 Z M 40.390625 28.597656 " fill-opacity="1" fill-rule="nonzero"/></g></g></g></g><g clip-path="url(#4f6c088325)"><g mask="url(#6d6b5afcb3)"><g transform="matrix(1, 0, 0, 1, 36, 99)"><g clip-path="url(#68042cc754)"><g clip-path="url(#b41bd17e7d)"><path fill="#000000" d="M 57.449219 1.773438 C 59.621094 8.476562 59.8125 15.804688 57.71875 22.578125 C 40.160156 25.660156 22.003906 25.308594 4.449219 21.414062 C 3.351562 14.601562 3.96875 7.519531 6.230469 1.003906 C 2 8.121094 0.101562 15.648438 0.378906 23.921875 C 14.726562 27.96875 27.195312 28.207031 40.230469 27.53125 C 48.042969 27.121094 54.691406 26.703125 62.097656 24.183594 C 62.496094 16.613281 61.128906 8.957031 57.449219 1.773438 Z M 57.449219 1.773438 " fill-opacity="1" fill-rule="nonzero"/></g></g></g></g></g><g clip-path="url(#ad479f427c)"><g mask="url(#4a6828e955)"><g transform="matrix(1, 0, 0, 1, 1, 17)"><g clip-path="url(#8bc8f31240)"><path fill="#ffffff" d="M 116.039062 56.460938 C 117.136719 49.808594 117.425781 43.023438 116.898438 36.300781 C 116.507812 31.359375 115.566406 26.1875 112.382812 22.386719 C 109.347656 18.769531 104.734375 16.925781 100.242188 15.472656 C 80.050781 8.929688 58.1875 7.472656 37.371094 11.621094 C 49.308594 4.742188 63.027344 0.65625 76.792969 1.15625 C 90.558594 1.65625 104.3125 6.964844 113.738281 16.921875 C 119.671875 29.363281 120.5 44.152344 116.039062 56.460938 Z M 116.039062 56.460938 " fill-opacity="1" fill-rule="nonzero"/><path fill="#ffffff" d="M 125.757812 22.921875 C 129.109375 34.785156 128.5 47.5625 125.203125 59.441406 C 126.261719 58.953125 127.0625 58.019531 127.589844 56.980469 C 128.121094 55.945312 128.40625 54.804688 128.667969 53.667969 C 129.800781 48.789062 130.574219 43.804688 130.523438 38.796875 C 130.476562 33.789062 129.578125 28.75 127.25 24.324219 C 126.722656 23.835938 126.195312 23.347656 125.757812 22.921875 Z M 125.757812 22.921875 " fill-opacity="1" fill-rule="nonzero"/><path fill="#ffffff" d="M 7.640625 23.449219 C 3.949219 34.882812 3.96875 47.476562 7.691406 58.894531 C 7.289062 58.570312 6.886719 58.25 6.449219 57.941406 C 1.691406 47.683594 1.335938 35.46875 5.457031 24.933594 C 6.230469 24.492188 7.003906 24.054688 7.636719 23.453125 Z M 7.640625 23.449219 " fill-opacity="1" fill-rule="nonzero"/><path fill="#ffffff" d="M 12.476562 20.953125 C 10.355469 26.867188 9.445312 33.160156 9.1875 39.441406 C 8.929688 45.71875 9.3125 52.003906 9.707031 58.273438 C 7.800781 46.371094 7.695312 34.183594 9.394531 22.246094 C 10.703125 21.546875 12.011719 20.847656 12.476562 20.953125 Z M 12.476562 20.953125 " fill-opacity="1" fill-rule="nonzero"/><path fill="#ffffff" d="M 121.167969 21.214844 C 124.257812 33.761719 124.289062 46.855469 123.453125 59.746094 C 125.734375 47.621094 126.035156 35.121094 124.175781 22.917969 C 123.539062 22.03125 122.507812 21.4375 121.167969 21.214844 Z M 121.167969 21.214844 " fill-opacity="1" fill-rule="nonzero"/><path fill="#ffffff" d="M 34.203125 80.613281 C 30.582031 80.53125 26.941406 81.558594 23.953125 83.492188 C 22.503906 82.914062 21.058594 82.335938 19.609375 81.757812 C 22.980469 84.011719 26.851562 88.457031 29.035156 91.929688 C 26.210938 88.597656 22.832031 85.738281 18.988281 83.515625 C 15.613281 84.492188 12.820312 86.960938 10.789062 89.835938 C 8.761719 92.710938 7.410156 95.996094 6.070312 99.25 C 10.4375 98.152344 15.21875 98.816406 19.128906 101.054688 C 13.757812 99.0625 7.503906 99.617188 2.570312 102.519531 C 3.542969 96.578125 6.902344 91.296875 10.6875 86.613281 C 11.484375 85.625 12.316406 84.644531 13.359375 83.917969 C 14.402344 83.195312 15.691406 82.742188 16.945312 82.9375 C 17.027344 82.457031 17.105469 81.976562 17.1875 81.492188 C 19.21875 81.101562 21.363281 81.339844 23.257812 82.167969 C 26.082031 79.773438 30.050781 79.402344 33.761719 79.027344 C 33.800781 79.660156 34.011719 80.277344 34.203125 80.613281 Z M 34.203125 80.613281 " fill-opacity="1" fill-rule="nonzero"/><g clip-path="url(#9dddeda4dd)"><path fill="#ffffff" d="M 20.542969 102.710938 C 16.320312 101.105469 11.546875 101.003906 7.261719 102.4375 C 6.769531 103.03125 6.375 103.703125 6.101562 104.425781 C 5.257812 104.113281 4.21875 104.457031 3.730469 105.210938 C 4.363281 105.59375 5.144531 105.722656 5.867188 105.566406 C 4.410156 108.808594 4.023438 112.523438 4.753906 116.003906 C 5.136719 115.992188 5.519531 115.980469 5.976562 115.9375 C 7.71875 120.003906 11.597656 123.085938 15.941406 123.808594 C 13.914062 122.234375 12.417969 119.984375 11.75 117.507812 C 11.082031 115.027344 11.246094 112.335938 12.378906 110.050781 C 11.074219 111.789062 11.121094 114.257812 11.933594 116.273438 C 12.75 118.292969 14.21875 119.960938 15.664062 121.585938 C 15.359375 117.675781 16.867188 113.660156 19.671875 110.917969 C 18.761719 112.777344 18.417969 114.90625 18.695312 116.957031 C 20.082031 116.929688 21.433594 117.882812 21.875 119.199219 C 24.398438 117.679688 26.433594 115.238281 27.117188 112.371094 C 28.101562 114.183594 28.023438 116.523438 26.917969 118.261719 C 25.816406 120.003906 23.734375 121.074219 21.679688 120.960938 C 21.40625 120.945312 21.105469 120.921875 20.894531 121.09375 C 20.734375 121.226562 20.671875 121.441406 20.605469 121.636719 C 20.167969 122.886719 19.097656 123.851562 17.875 124.359375 C 16.652344 124.871094 15.292969 124.96875 13.972656 124.867188 C 10.316406 124.597656 6.800781 122.816406 4.414062 120.035156 C 2.03125 117.253906 0.8125 113.503906 1.101562 109.851562 C 1.222656 108.355469 1.597656 106.855469 2.53125 105.671875 C 2.523438 105.675781 2.515625 105.679688 2.433594 105.53125 C 2.378906 104.402344 2.511719 103.265625 2.816406 102.175781 C 5.65625 100.847656 8.765625 100.03125 11.898438 100.058594 C 15.035156 100.082031 18.191406 100.972656 20.542969 102.710938 Z M 20.542969 102.710938 " fill-opacity="1" fill-rule="nonzero"/></g><path fill="#ffffff" d="M 88.347656 93.53125 C 87.933594 93.925781 87.402344 94.214844 86.832031 94.261719 C 86.261719 94.308594 85.65625 94.085938 85.3125 93.628906 C 84.96875 93.171875 84.9375 92.480469 85.296875 92.039062 C 85.566406 91.707031 86.003906 91.550781 86.429688 91.535156 C 87.101562 91.511719 87.804688 91.855469 88.109375 92.457031 C 88.414062 93.058594 88.238281 93.894531 88.347656 93.53125 Z M 88.347656 93.53125 " fill-opacity="1" fill-rule="nonzero"/><path fill="#ffffff" d="M 51.003906 93.234375 C 50.476562 93.902344 49.53125 94.214844 48.707031 93.988281 C 48.238281 93.859375 47.785156 93.523438 47.707031 93.046875 C 47.640625 92.640625 47.867188 92.21875 48.210938 91.988281 C 48.550781 91.757812 48.980469 91.695312 49.390625 91.730469 C 49.992188 91.785156 50.605469 92.074219 50.90625 92.597656 C 51.203125 93.121094 51.097656 93.886719 51.007812 93.234375 Z M 51.003906 93.234375 " fill-opacity="1" fill-rule="nonzero"/><path fill="#ffffff" d="M 95.121094 90.652344 C 94.152344 88.816406 93.042969 87.054688 91.757812 85.453125 C 89.734375 84.863281 87.765625 83.828125 85.660156 83.933594 C 84.445312 83.992188 83.5625 84.386719 82.492188 84.972656 C 76.683594 88.140625 70.65625 89.308594 64.675781 88.910156 C 58.6875 88.511719 52.457031 87.75 47.777344 84.007812 C 44.972656 83.496094 41.96875 84.207031 39.691406 85.917969 L 40.425781 83.382812 C 42.972656 82.316406 45.71875 81.234375 48.417969 81.8125 C 49.679688 82.082031 50.835938 82.703125 52.011719 83.238281 C 58.921875 86.375 66.835938 86.5625 74.371094 85.640625 C 78.230469 85.164062 82.382812 84.230469 84.847656 81.226562 C 87.816406 81.441406 91.105469 81.808594 93.066406 84.042969 C 94.625 85.820312 94.933594 88.339844 95.121094 90.652344 Z M 95.121094 90.652344 " fill-opacity="1" fill-rule="nonzero"/><g clip-path="url(#0c161c6c76)"><path fill="#ffffff" d="M 37.210938 110.195312 C 41.574219 110.839844 45.9375 111.488281 50.273438 112.300781 C 50.265625 112.496094 50.34375 112.695312 50.480469 112.835938 C 50.519531 112.703125 50.558594 112.570312 50.570312 112.425781 L 50.71875 112.078125 C 52.308594 113.820312 53.734375 115.710938 55.164062 117.640625 C 54.640625 115.808594 54.117188 113.972656 53.59375 112.140625 C 53.601562 112.261719 53.613281 112.382812 53.625 112.503906 C 53.527344 112.277344 53.433594 112.046875 53.339844 111.816406 C 54.980469 111.765625 56.625 111.832031 58.253906 112.019531 C 57.835938 111.992188 57.417969 111.960938 57 111.929688 C 57.121094 112.523438 57.238281 113.117188 57.359375 113.710938 C 63.230469 113.933594 69.105469 114.152344 74.972656 114.453125 C 75.359375 113.753906 75.582031 112.957031 75.613281 112.15625 C 76.734375 112.21875 77.863281 112.148438 78.957031 111.960938 C 78.90625 112.917969 78.753906 113.875 78.507812 114.804688 C 78.613281 114.566406 78.722656 114.328125 78.882812 114.113281 C 79.238281 113.308594 79.453125 112.445312 79.511719 111.570312 C 84.996094 111.367188 90.460938 110.597656 95.789062 109.285156 C 95.710938 109.660156 95.636719 110.039062 95.558594 110.414062 C 94.425781 110.605469 93.292969 110.792969 92.160156 110.984375 C 92.925781 110.984375 93.6875 110.984375 94.449219 110.980469 C 94.390625 111.230469 94.335938 111.480469 94.277344 111.726562 C 90.230469 112.074219 86.210938 112.695312 82.25 113.582031 C 82.425781 113.222656 82.601562 112.859375 82.777344 112.496094 C 82.054688 113.433594 80.722656 113.84375 79.59375 113.566406 C 79.570312 112.128906 79.742188 110.6875 80.109375 109.296875 C 65.628906 109.734375 50.992188 110.160156 36.796875 107.261719 C 37.003906 108.589844 37.210938 109.917969 37.210938 110.191406 Z M 37.210938 110.195312 " fill-opacity="1" fill-rule="nonzero"/></g><g clip-path="url(#5e55aabf0c)"><path fill="#ffffff" d="M 111.292969 82.40625 C 108.847656 83.578125 106.738281 85.441406 105.28125 87.726562 C 107.164062 86.449219 109.339844 85.601562 111.570312 85.128906 C 111.746094 84.980469 111.925781 84.835938 112.183594 84.554688 C 118.0625 87.414062 122.761719 92.617188 125 98.609375 C 122.058594 97.886719 118.855469 98.300781 116.199219 99.75 C 118.046875 99.503906 119.921875 99.453125 121.78125 99.597656 C 122.714844 99.667969 123.671875 99.800781 124.46875 100.28125 C 125.8125 101.089844 126.421875 102.683594 127.121094 104.226562 C 127.886719 103.894531 128.890625 104.414062 129.0625 105.230469 C 129.164062 105.261719 129.269531 105.292969 129.375 105.328125 C 127.609375 105.574219 125.816406 105.636719 124.039062 105.515625 C 124.585938 105.394531 125.171875 105.625 125.59375 105.996094 C 126.015625 106.371094 126.300781 106.867188 126.546875 107.375 C 127.804688 109.941406 128.265625 112.890625 127.988281 115.800781 C 125.730469 119.464844 121.992188 122.1875 117.8125 123.210938 C 119.40625 121.496094 120.761719 119.558594 121.828125 117.476562 C 119.902344 118.800781 117.703125 119.726562 115.410156 120.179688 C 115.339844 117.496094 114.691406 114.832031 113.515625 112.417969 C 113.769531 113.007812 114.027344 113.597656 114.28125 114.1875 C 112.019531 113.742188 109.535156 114.792969 108.285156 116.734375 C 107.488281 115.542969 106.691406 114.355469 105.894531 113.164062 C 105.054688 113.746094 104.75 114.894531 104.9375 115.898438 C 105.125 116.902344 105.722656 117.78125 106.386719 118.558594 C 108.25 120.734375 110.753906 122.351562 113.3125 123.363281 C 115.328125 124.984375 118.179688 125.183594 120.703125 124.617188 C 124.773438 123.699219 128.375 120.898438 130.269531 117.1875 C 132.164062 113.472656 132.316406 108.914062 130.78125 105.054688 C 130.6875 99.972656 128.242188 95.269531 125.824219 90.800781 C 124.761719 88.84375 123.671875 86.863281 122.097656 85.289062 C 120.523438 83.714844 118.367188 82.582031 116.136719 82.65625 C 116.046875 82.25 115.957031 81.84375 115.867188 81.4375 C 114.054688 81.421875 112.222656 81.960938 111.289062 82.40625 Z M 111.292969 82.40625 " fill-opacity="1" fill-rule="nonzero"/></g><path fill="#ffffff" d="M 91.132812 26.851562 C 79.160156 24.921875 66.949219 24.964844 54.839844 25.664062 C 49.792969 25.953125 44.132812 26.714844 40.535156 28.785156 C 36.078125 31.355469 33.09375 36.621094 31.792969 41.601562 C 30.492188 46.582031 30.53125 51.804688 30.785156 56.945312 C 28.332031 51.007812 27.289062 44.496094 27.765625 38.089844 C 27.96875 35.359375 28.480469 32.558594 29.980469 30.269531 C 32.320312 26.691406 35.167969 24.800781 40.535156 24.035156 C 49.066406 22.816406 57.707031 22.207031 66.296875 22.921875 C 74.882812 23.636719 83.507812 24.640625 91.132812 26.851562 Z M 91.132812 26.851562 " fill-opacity="1" fill-rule="nonzero"/></g></g></g></g><g mask="url(#9c7c0e4b03)"><g transform="matrix(1, 0, 0, 1, 79, 50)"><g clip-path="url(#fdcb2c51ce)"><g clip-path="url(#01decedf86)"><path fill="#ffffff" d="M 22.730469 16.316406 C 22.730469 17.316406 22.660156 18.304688 22.515625 19.285156 C 22.375 20.261719 22.164062 21.214844 21.882812 22.136719 C 21.601562 23.058594 21.261719 23.9375 20.855469 24.765625 C 20.449219 25.597656 19.988281 26.363281 19.472656 27.070312 C 18.953125 27.777344 18.390625 28.40625 17.785156 28.960938 C 17.175781 29.515625 16.535156 29.984375 15.859375 30.367188 C 15.183594 30.75 14.488281 31.039062 13.773438 31.230469 C 13.054688 31.425781 12.332031 31.523438 11.601562 31.523438 C 10.871094 31.523438 10.148438 31.425781 9.429688 31.230469 C 8.714844 31.039062 8.019531 30.75 7.34375 30.367188 C 6.667969 29.984375 6.027344 29.515625 5.417969 28.960938 C 4.8125 28.40625 4.25 27.777344 3.734375 27.070312 C 3.214844 26.363281 2.753906 25.597656 2.347656 24.765625 C 1.941406 23.9375 1.601562 23.058594 1.320312 22.136719 C 1.039062 21.214844 0.828125 20.261719 0.6875 19.285156 C 0.542969 18.304688 0.472656 17.316406 0.472656 16.316406 C 0.472656 15.320312 0.542969 14.332031 0.6875 13.351562 C 0.828125 12.371094 1.039062 11.421875 1.320312 10.5 C 1.601562 9.574219 1.941406 8.699219 2.347656 7.867188 C 2.753906 7.039062 3.214844 6.269531 3.734375 5.566406 C 4.25 4.859375 4.8125 4.226562 5.417969 3.671875 C 6.027344 3.117188 6.667969 2.648438 7.34375 2.269531 C 8.019531 1.886719 8.714844 1.597656 9.429688 1.402344 C 10.148438 1.207031 10.871094 1.109375 11.601562 1.109375 C 12.332031 1.109375 13.054688 1.207031 13.773438 1.402344 C 14.488281 1.597656 15.183594 1.886719 15.859375 2.269531 C 16.535156 2.648438 17.175781 3.117188 17.785156 3.671875 C 18.390625 4.226562 18.953125 4.859375 19.472656 5.566406 C 19.988281 6.269531 20.449219 7.039062 20.855469 7.867188 C 21.261719 8.699219 21.601562 9.574219 21.882812 10.5 C 22.164062 11.421875 22.375 12.371094 22.515625 13.351562 C 22.660156 14.332031 22.730469 15.320312 22.730469 16.316406 Z M 22.730469 16.316406 " fill-opacity="1" fill-rule="nonzero"/></g></g></g></g><g mask="url(#16efbf4de0)"><g transform="matrix(1, 0, 0, 1, 79, 50)"><g clip-path="url(#de084324d4)"><g clip-path="url(#4f17e23b66)"><path fill="#000000" d="M 22.730469 16.316406 C 22.730469 17.316406 22.660156 18.304688 22.515625 19.285156 C 22.375 20.261719 22.164062 21.214844 21.882812 22.136719 C 21.601562 23.058594 21.261719 23.9375 20.855469 24.765625 C 20.449219 25.597656 19.988281 26.363281 19.472656 27.070312 C 18.953125 27.777344 18.390625 28.40625 17.785156 28.960938 C 17.175781 29.515625 16.535156 29.984375 15.859375 30.367188 C 15.183594 30.75 14.488281 31.039062 13.773438 31.230469 C 13.054688 31.425781 12.332031 31.523438 11.601562 31.523438 C 10.871094 31.523438 10.148438 31.425781 9.429688 31.230469 C 8.714844 31.039062 8.019531 30.75 7.34375 30.367188 C 6.667969 29.984375 6.027344 29.515625 5.417969 28.960938 C 4.8125 28.40625 4.25 27.777344 3.734375 27.070312 C 3.214844 26.363281 2.753906 25.597656 2.347656 24.765625 C 1.941406 23.9375 1.601562 23.058594 1.320312 22.136719 C 1.039062 21.214844 0.828125 20.261719 0.6875 19.285156 C 0.542969 18.304688 0.472656 17.316406 0.472656 16.316406 C 0.472656 15.320312 0.542969 14.332031 0.6875 13.351562 C 0.828125 12.371094 1.039062 11.421875 1.320312 10.5 C 1.601562 9.574219 1.941406 8.699219 2.347656 7.867188 C 2.753906 7.039062 3.214844 6.269531 3.734375 5.566406 C 4.25 4.859375 4.8125 4.226562 5.417969 3.671875 C 6.027344 3.117188 6.667969 2.648438 7.34375 2.269531 C 8.019531 1.886719 8.714844 1.597656 9.429688 1.402344 C 10.148438 1.207031 10.871094 1.109375 11.601562 1.109375 C 12.332031 1.109375 13.054688 1.207031 13.773438 1.402344 C 14.488281 1.597656 15.183594 1.886719 15.859375 2.269531 C 16.535156 2.648438 17.175781 3.117188 17.785156 3.671875 C 18.390625 4.226562 18.953125 4.859375 19.472656 5.566406 C 19.988281 6.269531 20.449219 7.039062 20.855469 7.867188 C 21.261719 8.699219 21.601562 9.574219 21.882812 10.5 C 22.164062 11.421875 22.375 12.371094 22.515625 13.351562 C 22.660156 14.332031 22.730469 15.320312 22.730469 16.316406 Z M 22.730469 16.316406 " fill-opacity="1" fill-rule="nonzero"/></g></g></g></g><g mask="url(#2b8b636dcf)"><g transform="matrix(1, 0, 0, 1, 80, 54)"><g clip-path="url(#ba6f4ee5b1)"><g clip-path="url(#e78ff3ca49)"><path fill="#ffffff" d="M 20.429688 14.097656 C 20.429688 14.976562 20.367188 15.851562 20.238281 16.714844 C 20.113281 17.582031 19.925781 18.421875 19.679688 19.234375 C 19.433594 20.050781 19.132812 20.824219 18.773438 21.558594 C 18.414062 22.289062 18.007812 22.96875 17.550781 23.589844 C 17.09375 24.214844 16.597656 24.773438 16.0625 25.261719 C 15.523438 25.75 14.957031 26.164062 14.363281 26.503906 C 13.765625 26.839844 13.152344 27.09375 12.519531 27.265625 C 11.886719 27.4375 11.246094 27.523438 10.601562 27.523438 C 9.957031 27.523438 9.316406 27.4375 8.683594 27.265625 C 8.050781 27.09375 7.4375 26.839844 6.839844 26.503906 C 6.246094 26.164062 5.679688 25.75 5.140625 25.261719 C 4.605469 24.773438 4.109375 24.214844 3.652344 23.589844 C 3.195312 22.96875 2.789062 22.289062 2.429688 21.558594 C 2.074219 20.824219 1.769531 20.050781 1.523438 19.234375 C 1.277344 18.421875 1.089844 17.582031 0.964844 16.714844 C 0.839844 15.851562 0.773438 14.976562 0.773438 14.097656 C 0.773438 13.214844 0.839844 12.34375 0.964844 11.476562 C 1.089844 10.613281 1.277344 9.773438 1.523438 8.957031 C 1.769531 8.144531 2.074219 7.371094 2.429688 6.636719 C 2.789062 5.902344 3.195312 5.226562 3.652344 4.601562 C 4.109375 3.980469 4.605469 3.421875 5.140625 2.933594 C 5.679688 2.441406 6.246094 2.027344 6.839844 1.691406 C 7.4375 1.355469 8.050781 1.097656 8.683594 0.925781 C 9.316406 0.753906 9.957031 0.667969 10.601562 0.667969 C 11.246094 0.667969 11.886719 0.753906 12.519531 0.925781 C 13.152344 1.097656 13.765625 1.355469 14.363281 1.691406 C 14.957031 2.027344 15.523438 2.441406 16.0625 2.933594 C 16.597656 3.421875 17.09375 3.980469 17.550781 4.601562 C 18.007812 5.226562 18.414062 5.902344 18.773438 6.636719 C 19.132812 7.371094 19.433594 8.144531 19.679688 8.957031 C 19.925781 9.773438 20.113281 10.613281 20.238281 11.476562 C 20.367188 12.34375 20.429688 13.214844 20.429688 14.097656 Z M 20.429688 14.097656 " fill-opacity="1" fill-rule="nonzero"/></g></g></g></g><g mask="url(#8a8971051d)"><g transform="matrix(1, 0, 0, 1, 36, 50)"><g clip-path="url(#e380cc06b7)"><g clip-path="url(#883f5f5ff8)"><path fill="#ffffff" d="M 22.902344 16.316406 C 22.902344 17.316406 22.828125 18.304688 22.6875 19.285156 C 22.542969 20.261719 22.332031 21.214844 22.054688 22.136719 C 21.773438 23.058594 21.429688 23.9375 21.023438 24.765625 C 20.621094 25.597656 20.15625 26.363281 19.640625 27.070312 C 19.125 27.777344 18.5625 28.40625 17.953125 28.960938 C 17.347656 29.515625 16.707031 29.984375 16.03125 30.367188 C 15.355469 30.75 14.660156 31.039062 13.941406 31.230469 C 13.226562 31.425781 12.503906 31.523438 11.773438 31.523438 C 11.042969 31.523438 10.316406 31.425781 9.601562 31.230469 C 8.882812 31.039062 8.1875 30.75 7.511719 30.367188 C 6.839844 29.984375 6.195312 29.515625 5.589844 28.960938 C 4.980469 28.40625 4.421875 27.777344 3.902344 27.070312 C 3.386719 26.363281 2.925781 25.597656 2.519531 24.765625 C 2.113281 23.9375 1.769531 23.058594 1.492188 22.136719 C 1.210938 21.214844 1 20.261719 0.859375 19.285156 C 0.714844 18.304688 0.644531 17.316406 0.644531 16.316406 C 0.644531 15.320312 0.714844 14.332031 0.859375 13.351562 C 1 12.371094 1.210938 11.421875 1.492188 10.5 C 1.769531 9.574219 2.113281 8.699219 2.519531 7.867188 C 2.925781 7.039062 3.386719 6.269531 3.902344 5.566406 C 4.421875 4.859375 4.980469 4.226562 5.589844 3.671875 C 6.195312 3.117188 6.839844 2.648438 7.511719 2.269531 C 8.1875 1.886719 8.882812 1.597656 9.601562 1.402344 C 10.316406 1.207031 11.042969 1.109375 11.773438 1.109375 C 12.503906 1.109375 13.226562 1.207031 13.941406 1.402344 C 14.660156 1.597656 15.355469 1.886719 16.03125 2.269531 C 16.707031 2.648438 17.347656 3.117188 17.953125 3.671875 C 18.5625 4.226562 19.125 4.859375 19.640625 5.566406 C 20.15625 6.269531 20.621094 7.039062 21.023438 7.867188 C 21.429688 8.699219 21.773438 9.574219 22.054688 10.5 C 22.332031 11.421875 22.542969 12.371094 22.6875 13.351562 C 22.828125 14.332031 22.902344 15.320312 22.902344 16.316406 Z M 22.902344 16.316406 " fill-opacity="1" fill-rule="nonzero"/></g></g></g></g><g mask="url(#19c788070c)"><g transform="matrix(1, 0, 0, 1, 36, 50)"><g clip-path="url(#8a1d073176)"><g clip-path="url(#960a8fe34f)"><path fill="#000000" d="M 22.902344 16.316406 C 22.902344 17.316406 22.828125 18.304688 22.6875 19.285156 C 22.542969 20.261719 22.332031 21.214844 22.054688 22.136719 C 21.773438 23.058594 21.429688 23.9375 21.023438 24.765625 C 20.621094 25.597656 20.15625 26.363281 19.640625 27.070312 C 19.125 27.777344 18.5625 28.40625 17.953125 28.960938 C 17.347656 29.515625 16.707031 29.984375 16.03125 30.367188 C 15.355469 30.75 14.660156 31.039062 13.941406 31.230469 C 13.226562 31.425781 12.503906 31.523438 11.773438 31.523438 C 11.042969 31.523438 10.316406 31.425781 9.601562 31.230469 C 8.882812 31.039062 8.1875 30.75 7.511719 30.367188 C 6.839844 29.984375 6.195312 29.515625 5.589844 28.960938 C 4.980469 28.40625 4.421875 27.777344 3.902344 27.070312 C 3.386719 26.363281 2.925781 25.597656 2.519531 24.765625 C 2.113281 23.9375 1.769531 23.058594 1.492188 22.136719 C 1.210938 21.214844 1 20.261719 0.859375 19.285156 C 0.714844 18.304688 0.644531 17.316406 0.644531 16.316406 C 0.644531 15.320312 0.714844 14.332031 0.859375 13.351562 C 1 12.371094 1.210938 11.421875 1.492188 10.5 C 1.769531 9.574219 2.113281 8.699219 2.519531 7.867188 C 2.925781 7.039062 3.386719 6.269531 3.902344 5.566406 C 4.421875 4.859375 4.980469 4.226562 5.589844 3.671875 C 6.195312 3.117188 6.839844 2.648438 7.511719 2.269531 C 8.1875 1.886719 8.882812 1.597656 9.601562 1.402344 C 10.316406 1.207031 11.042969 1.109375 11.773438 1.109375 C 12.503906 1.109375 13.226562 1.207031 13.941406 1.402344 C 14.660156 1.597656 15.355469 1.886719 16.03125 2.269531 C 16.707031 2.648438 17.347656 3.117188 17.953125 3.671875 C 18.5625 4.226562 19.125 4.859375 19.640625 5.566406 C 20.15625 6.269531 20.621094 7.039062 21.023438 7.867188 C 21.429688 8.699219 21.773438 9.574219 22.054688 10.5 C 22.332031 11.421875 22.542969 12.371094 22.6875 13.351562 C 22.828125 14.332031 22.902344 15.320312 22.902344 16.316406 Z M 22.902344 16.316406 " fill-opacity="1" fill-rule="nonzero"/></g></g></g></g><g mask="url(#0941abb747)"><g transform="matrix(1, 0, 0, 1, 37, 54)"><g clip-path="url(#01f91ebe24)"><g clip-path="url(#b0c95d7e90)"><path fill="#ffffff" d="M 20.597656 14.097656 C 20.597656 14.976562 20.535156 15.851562 20.410156 16.714844 C 20.285156 17.582031 20.097656 18.421875 19.851562 19.234375 C 19.605469 20.050781 19.300781 20.824219 18.941406 21.558594 C 18.585938 22.289062 18.175781 22.96875 17.722656 23.589844 C 17.265625 24.214844 16.769531 24.773438 16.230469 25.261719 C 15.695312 25.75 15.128906 26.164062 14.53125 26.503906 C 13.9375 26.839844 13.320312 27.09375 12.6875 27.265625 C 12.054688 27.4375 11.417969 27.523438 10.773438 27.523438 C 10.128906 27.523438 9.488281 27.4375 8.855469 27.265625 C 8.222656 27.09375 7.609375 26.839844 7.011719 26.503906 C 6.414062 26.164062 5.847656 25.75 5.3125 25.261719 C 4.777344 24.773438 4.28125 24.214844 3.824219 23.589844 C 3.367188 22.96875 2.960938 22.289062 2.601562 21.558594 C 2.242188 20.824219 1.941406 20.050781 1.695312 19.234375 C 1.445312 18.421875 1.261719 17.582031 1.132812 16.714844 C 1.007812 15.851562 0.945312 14.976562 0.945312 14.097656 C 0.945312 13.214844 1.007812 12.34375 1.132812 11.476562 C 1.261719 10.613281 1.445312 9.773438 1.695312 8.957031 C 1.941406 8.144531 2.242188 7.371094 2.601562 6.636719 C 2.960938 5.902344 3.367188 5.226562 3.824219 4.601562 C 4.28125 3.980469 4.777344 3.421875 5.3125 2.933594 C 5.847656 2.441406 6.414062 2.027344 7.011719 1.691406 C 7.609375 1.355469 8.222656 1.097656 8.855469 0.925781 C 9.488281 0.753906 10.128906 0.667969 10.773438 0.667969 C 11.417969 0.667969 12.054688 0.753906 12.6875 0.925781 C 13.320312 1.097656 13.9375 1.355469 14.53125 1.691406 C 15.128906 2.027344 15.695312 2.441406 16.230469 2.933594 C 16.769531 3.421875 17.265625 3.980469 17.722656 4.601562 C 18.175781 5.226562 18.585938 5.902344 18.941406 6.636719 C 19.300781 7.371094 19.605469 8.144531 19.851562 8.957031 C 20.097656 9.773438 20.285156 10.613281 20.410156 11.476562 C 20.535156 12.34375 20.597656 13.214844 20.597656 14.097656 Z M 20.597656 14.097656 " fill-opacity="1" fill-rule="nonzero"/></g></g></g></g><path fill="#ffffff" d="M 54.25 58.820312 C 52.457031 56.304688 48.988281 55.246094 45.996094 56.011719 C 43.007812 56.777344 40.566406 59.175781 39.410156 62.039062 C 38.253906 64.902344 38.300781 68.164062 39.179688 71.125 C 38.824219 68.449219 39.15625 65.652344 40.34375 63.226562 C 41.527344 60.796875 43.597656 58.769531 46.136719 57.84375 C 48.671875 56.917969 51.65625 57.160156 54.25 58.820312 Z M 54.25 58.820312 " fill-opacity="1" fill-rule="nonzero"/><g clip-path="url(#a6919aa69b)"><path fill="#000000" d="M 116.453125 141.4375 C 119.246094 140 121.109375 137.144531 121.894531 134.101562 C 122.445312 131.980469 122.476562 129.578125 121.484375 127.625 C 120.367188 125.421875 117.929688 124.023438 115.460938 123.929688 C 117.453125 123.488281 119.617188 124.171875 121.121094 125.550781 C 122.625 126.929688 123.480469 128.941406 123.617188 130.976562 C 123.753906 133.007812 123.207031 135.058594 122.234375 136.851562 C 121.265625 138.644531 119.886719 140.195312 118.324219 141.519531 C 117.761719 141.480469 117.195312 141.445312 116.453125 141.4375 Z M 116.453125 141.4375 " fill-opacity="1" fill-rule="nonzero"/></g><path fill="#000000" d="M 131.179688 120.253906 C 127.703125 118.304688 123.652344 117.230469 119.699219 117.738281 C 115.746094 118.246094 111.9375 120.464844 109.96875 123.929688 C 109.804688 123.65625 109.542969 123.4375 109.242188 123.332031 C 109.121094 123.425781 109 123.515625 108.878906 123.609375 C 110.828125 119.859375 114.664062 117.257812 118.804688 116.414062 C 122.945312 115.570312 127.328125 116.390625 131.132812 118.257812 C 131.253906 119.125 131.371094 119.996094 131.179688 120.253906 Z M 131.179688 120.253906 " fill-opacity="1" fill-rule="nonzero"/><path fill="#000000" d="M 118.222656 99.980469 C 113.871094 101.546875 109.902344 104.171875 106.757812 107.5625 C 103.609375 110.953125 101.292969 115.105469 100.019531 119.515625 C 99.625 119.027344 98.988281 118.742188 98.363281 118.78125 C 99.332031 114.875 102.304688 110.484375 105.328125 107.261719 C 108.394531 103.996094 112.382812 101.132812 116.519531 99.289062 C 117.03125 99.058594 116.484375 99.167969 117.046875 99.152344 C 117.605469 99.132812 118.214844 99.4375 118.222656 99.980469 Z M 118.222656 99.980469 " fill-opacity="1" fill-rule="nonzero"/><path fill="#000000" d="M 108.910156 123.480469 C 110.660156 121.117188 111.0625 117.914062 110.347656 115.054688 C 109.632812 112.199219 107.894531 109.675781 105.765625 107.644531 C 106.046875 107.558594 106.300781 107.375 106.421875 107.191406 C 108.414062 108.8125 109.960938 110.976562 110.855469 113.386719 C 111.746094 115.792969 111.980469 118.441406 111.46875 120.953125 C 110.824219 122.0625 109.957031 123.046875 108.910156 123.480469 Z M 108.910156 123.480469 " fill-opacity="1" fill-rule="nonzero"/><path fill="#000000" d="M 116.453125 98.800781 C 112.179688 99.457031 108.164062 101.519531 105 104.464844 C 101.835938 107.410156 99.515625 111.21875 98.152344 115.320312 C 97.925781 114.609375 97.695312 113.894531 97.542969 113.109375 C 97.121094 112.644531 97.054688 111.9375 97.226562 111.332031 C 97.394531 110.726562 97.769531 110.199219 98.152344 109.703125 C 101.609375 105.203125 106.402344 101.90625 111.429688 99.292969 C 113.097656 98.578125 114.980469 98.382812 116.453125 98.800781 Z M 116.453125 98.800781 " fill-opacity="1" fill-rule="nonzero"/><path fill="#000000" d="M 99.539062 94.835938 C 97.566406 99.203125 96.683594 104.054688 97.03125 108.832031 C 97.1875 109.714844 97.414062 110.582031 97.710938 111.429688 C 98.089844 111.105469 98.769531 110.953125 98.9375 110.5 C 98.34375 104.941406 98.855469 100.277344 100.832031 96.246094 C 100.570312 96.222656 100.308594 96.199219 100.046875 96.175781 C 100.203125 95.90625 100.359375 95.632812 100.519531 95.363281 C 100.210938 95.191406 99.898438 95.019531 99.539062 94.835938 Z M 99.539062 94.835938 " fill-opacity="1" fill-rule="nonzero"/><path fill="#000000" d="M 98.246094 105.386719 C 99.425781 105.445312 100.582031 105.902344 101.476562 106.667969 C 101.59375 106.496094 101.753906 106.347656 101.949219 106.234375 C 100.914062 105.324219 99.5625 104.695312 98.179688 104.75 C 98.152344 104.925781 98.125 105.191406 98.246094 105.386719 Z M 98.246094 105.386719 " fill-opacity="1" fill-rule="nonzero"/><path fill="#000000" d="M 112.199219 31.527344 C 116.5625 39.386719 118.835938 48.390625 118.738281 57.378906 C 118.6875 62.160156 117.960938 66.929688 116.59375 71.585938 C 114.316406 79.339844 106.367188 85.707031 99.011719 89.058594 C 89.011719 93.613281 78.082031 96.140625 67.09375 96.371094 C 67.09375 96.371094 69.964844 100.09375 70.257812 100.03125 C 78.320312 98.757812 86.359375 97.175781 94.085938 94.5625 C 101.816406 91.949219 109.25 88.265625 115.480469 82.890625 C 120.894531 68.085938 121.308594 51.496094 116.832031 36.382812 C 115.453125 34.796875 114.070312 33.214844 112.203125 31.523438 Z M 112.199219 31.527344 " fill-opacity="1" fill-rule="nonzero"/><path fill="#000000" d="M 116.238281 83.445312 L 114.601562 82.832031 C 117.429688 75.285156 119.011719 67.105469 119.175781 59.175781 C 119.34375 50.917969 118.046875 43.171875 115.320312 36.15625 L 116.949219 35.519531 C 119.757812 42.753906 121.097656 50.722656 120.921875 59.210938 C 120.753906 67.335938 119.136719 75.714844 116.238281 83.445312 Z M 116.238281 83.445312 " fill-opacity="1" fill-rule="nonzero"/><path fill="#000000" d="M 125.527344 77.625 L 123.800781 77.34375 C 125.855469 64.789062 125.96875 52.042969 124.136719 39.457031 L 125.867188 39.207031 C 127.722656 51.96875 127.609375 64.894531 125.527344 77.625 Z M 125.527344 77.625 " fill-opacity="1" fill-rule="nonzero"/><path fill="#000000" d="M 86.195312 113.113281 C 83.820312 113.113281 81.882812 111.179688 81.882812 108.800781 C 81.882812 106.425781 83.820312 104.492188 86.195312 104.492188 C 88.574219 104.492188 90.507812 106.425781 90.507812 108.800781 C 90.507812 111.179688 88.574219 113.113281 86.195312 113.113281 Z M 86.195312 105.890625 C 84.589844 105.890625 83.28125 107.195312 83.28125 108.800781 C 83.28125 110.410156 84.589844 111.714844 86.195312 111.714844 C 87.804688 111.714844 89.109375 110.410156 89.109375 108.800781 C 89.109375 107.195312 87.804688 105.890625 86.195312 105.890625 Z M 86.195312 105.890625 " fill-opacity="1" fill-rule="nonzero"/><path fill="#000000" d="M 113.925781 118.960938 C 113.429688 114.203125 111.140625 109.601562 107.648438 106.332031 L 108.285156 105.652344 C 111.9375 109.070312 114.332031 113.886719 114.851562 118.863281 L 113.921875 118.960938 Z M 113.925781 118.960938 " fill-opacity="1" fill-rule="nonzero"/><path fill="#000000" d="M 110.285156 108.597656 L 109.632812 107.933594 C 113.304688 104.339844 118.558594 102.40625 123.683594 102.757812 L 123.621094 103.6875 C 118.757812 103.355469 113.769531 105.191406 110.28125 108.597656 Z M 110.285156 108.597656 " fill-opacity="1" fill-rule="nonzero"/><g clip-path="url(#ac98d76d25)"><path fill="#000000" d="M 112.085938 125.617188 L 111.75 124.746094 C 118.050781 122.308594 124.917969 121.480469 131.617188 122.347656 L 131.5 123.269531 C 124.953125 122.425781 118.242188 123.234375 112.085938 125.617188 Z M 112.085938 125.617188 " fill-opacity="1" fill-rule="nonzero"/></g><g clip-path="url(#d52274c1e2)"><path fill="#000000" d="M 111.339844 125.113281 L 110.871094 124.304688 C 113.9375 122.539062 117.460938 121.367188 121.0625 120.921875 C 124.664062 120.472656 128.363281 120.746094 131.769531 121.707031 L 131.515625 122.605469 C 128.230469 121.675781 124.65625 121.414062 121.175781 121.847656 C 117.699219 122.277344 114.296875 123.410156 111.335938 125.113281 Z M 111.339844 125.113281 " fill-opacity="1" fill-rule="nonzero"/></g><path fill="#000000" d="M 103.273438 106.304688 L 102.382812 106.03125 C 103.34375 102.910156 104.832031 100.011719 106.804688 97.410156 L 107.546875 97.972656 C 105.640625 100.488281 104.203125 103.289062 103.273438 106.304688 Z M 103.273438 106.304688 " fill-opacity="1" fill-rule="nonzero"/><g clip-path="url(#b2b35851f7)"><path fill="#000000" d="M 18.535156 141.4375 C 15.742188 140 13.878906 137.144531 13.09375 134.101562 C 12.546875 131.980469 12.511719 129.578125 13.503906 127.625 C 14.621094 125.421875 17.058594 124.023438 19.527344 123.929688 C 17.535156 123.488281 15.371094 124.171875 13.867188 125.550781 C 12.367188 126.929688 11.507812 128.941406 11.371094 130.976562 C 11.234375 133.007812 11.78125 135.058594 12.753906 136.851562 C 13.722656 138.644531 15.105469 140.195312 16.664062 141.519531 C 17.226562 141.480469 17.792969 141.445312 18.535156 141.4375 Z M 18.535156 141.4375 " fill-opacity="1" fill-rule="nonzero"/></g><path fill="#000000" d="M 3.808594 120.253906 C 7.285156 118.304688 11.335938 117.230469 15.289062 117.738281 C 19.242188 118.246094 23.050781 120.464844 25.019531 123.929688 C 25.1875 123.65625 25.449219 123.4375 25.75 123.332031 C 25.867188 123.425781 25.988281 123.515625 26.109375 123.609375 C 24.160156 119.859375 20.324219 117.257812 16.183594 116.414062 C 12.046875 115.570312 7.660156 116.390625 3.855469 118.257812 C 3.738281 119.125 3.617188 119.996094 3.808594 120.253906 Z M 3.808594 120.253906 " fill-opacity="1" fill-rule="nonzero"/><path fill="#000000" d="M 16.765625 99.980469 C 21.117188 101.546875 25.085938 104.171875 28.230469 107.5625 C 31.378906 110.953125 33.695312 115.105469 34.96875 119.515625 C 35.363281 119.027344 36 118.742188 36.625 118.78125 C 35.65625 114.875 32.683594 110.484375 29.660156 107.261719 C 26.59375 103.996094 22.605469 101.132812 18.46875 99.289062 C 17.957031 99.058594 18.503906 99.167969 17.945312 99.152344 C 17.382812 99.132812 16.773438 99.4375 16.765625 99.980469 Z M 16.765625 99.980469 " fill-opacity="1" fill-rule="nonzero"/><path fill="#000000" d="M 26.082031 123.480469 C 24.328125 121.117188 23.925781 117.914062 24.640625 115.054688 C 25.355469 112.199219 27.09375 109.675781 29.226562 107.644531 C 28.941406 107.558594 28.6875 107.375 28.566406 107.191406 C 26.574219 108.8125 25.027344 110.976562 24.132812 113.386719 C 23.242188 115.792969 23.007812 118.441406 23.519531 120.953125 C 24.167969 122.0625 25.03125 123.046875 26.078125 123.480469 Z M 26.082031 123.480469 " fill-opacity="1" fill-rule="nonzero"/><path fill="#000000" d="M 18.535156 98.800781 C 22.808594 99.457031 26.824219 101.519531 29.988281 104.464844 C 33.152344 107.410156 35.472656 111.21875 36.835938 115.320312 C 37.066406 114.609375 37.292969 113.894531 37.445312 113.109375 C 37.867188 112.644531 37.933594 111.9375 37.765625 111.332031 C 37.59375 110.726562 37.222656 110.199219 36.835938 109.703125 C 33.378906 105.203125 28.585938 101.90625 23.558594 99.292969 C 21.890625 98.578125 20.007812 98.382812 18.535156 98.800781 Z M 18.535156 98.800781 " fill-opacity="1" fill-rule="nonzero"/><path fill="#000000" d="M 35.449219 94.835938 C 37.421875 99.203125 38.304688 104.054688 37.957031 108.832031 C 37.800781 109.714844 37.574219 110.582031 37.277344 111.429688 C 36.898438 111.105469 36.222656 110.953125 36.050781 110.5 C 36.644531 104.941406 36.132812 100.277344 34.15625 96.246094 C 34.417969 96.222656 34.679688 96.199219 34.945312 96.175781 C 34.785156 95.90625 34.628906 95.632812 34.472656 95.363281 C 34.78125 95.191406 35.089844 95.019531 35.449219 94.835938 Z M 35.449219 94.835938 " fill-opacity="1" fill-rule="nonzero"/><path fill="#000000" d="M 36.746094 105.386719 C 35.566406 105.445312 34.410156 105.902344 33.511719 106.667969 C 33.394531 106.496094 33.238281 106.347656 33.039062 106.234375 C 34.078125 105.324219 35.425781 104.695312 36.8125 104.75 C 36.835938 104.925781 36.863281 105.191406 36.742188 105.386719 Z M 36.746094 105.386719 " fill-opacity="1" fill-rule="nonzero"/><path fill="#000000" d="M 22.789062 31.527344 C 18.429688 39.386719 16.152344 48.390625 16.25 57.378906 C 16.300781 62.160156 17.027344 66.929688 18.394531 71.585938 C 20.671875 79.339844 26.238281 85.707031 33.589844 89.058594 C 43.589844 93.613281 56.949219 96.140625 67.941406 96.371094 C 67.941406 96.371094 65.023438 100.09375 64.730469 100.03125 C 56.671875 98.757812 48.632812 97.175781 40.902344 94.5625 C 33.171875 91.949219 25.738281 88.265625 19.507812 82.890625 C 14.09375 68.085938 13.679688 51.496094 18.15625 36.382812 C 19.539062 34.796875 20.917969 33.214844 22.789062 31.523438 Z M 22.789062 31.527344 " fill-opacity="1" fill-rule="nonzero"/><path fill="#000000" d="M 69.652344 97.675781 C 69.148438 97.039062 68.273438 96.75 67.464844 96.851562 C 66.652344 96.953125 65.914062 97.40625 65.359375 98 C 65.183594 98.1875 65.023438 98.390625 64.9375 98.632812 C 64.855469 98.875 64.859375 99.15625 65.003906 99.367188 C 65.183594 99.636719 65.53125 99.730469 65.851562 99.785156 C 66.738281 99.9375 67.65625 99.941406 68.546875 99.796875 C 68.910156 99.734375 69.277344 99.648438 69.597656 99.460938 C 69.914062 99.273438 70.183594 98.972656 70.253906 98.609375 C 70.328125 98.246094 70.167969 97.828125 69.652344 97.679688 Z M 69.652344 97.675781 " fill-opacity="1" fill-rule="nonzero"/><g clip-path="url(#896807050b)"><path fill="#000000" d="M 101.246094 167.164062 C 100.570312 167.164062 99.9375 167.121094 99.296875 166.925781 C 98.46875 166.675781 97.777344 166.183594 97.34375 165.558594 C 90.902344 165.921875 84.519531 165.660156 78.363281 164.777344 L 77.644531 164.671875 L 77.613281 163.949219 C 77.5 161.261719 77.640625 158.550781 78.027344 155.886719 L 78.035156 155.851562 C 78.136719 155.3125 78.214844 154.871094 78.289062 154.484375 C 78.464844 153.523438 78.578125 152.886719 78.808594 151.984375 C 78.847656 151.820312 78.886719 151.660156 78.925781 151.503906 C 79.222656 150.308594 79.480469 149.277344 80.007812 148.3125 C 80.566406 147.289062 81.488281 146.570312 82.589844 146.257812 C 82.261719 145.148438 82.183594 143.980469 82.363281 142.820312 C 81.550781 141.359375 81.3125 139.617188 81.675781 137.96875 C 80.707031 138.105469 79.765625 138.167969 78.652344 138.175781 C 75.980469 140.402344 73.0625 141.558594 69.738281 141.710938 L 69.699219 141.710938 C 69.699219 141.710938 65.246094 141.710938 65.246094 141.710938 C 61.921875 141.558594 59.003906 140.402344 56.332031 138.175781 C 55.222656 138.167969 54.277344 138.105469 53.308594 137.96875 C 53.671875 139.617188 53.433594 141.359375 52.621094 142.820312 C 52.800781 143.980469 52.722656 145.152344 52.394531 146.257812 C 53.496094 146.570312 54.417969 147.289062 54.976562 148.3125 C 55.503906 149.277344 55.761719 150.308594 56.058594 151.503906 C 56.097656 151.660156 56.136719 151.820312 56.175781 151.984375 C 56.40625 152.890625 56.523438 153.523438 56.695312 154.484375 C 56.769531 154.875 56.847656 155.316406 56.949219 155.851562 L 56.957031 155.890625 C 57.34375 158.550781 57.484375 161.261719 57.371094 163.949219 L 57.339844 164.675781 L 56.621094 164.777344 C 50.464844 165.664062 44.082031 165.925781 37.640625 165.5625 C 37.207031 166.1875 36.515625 166.675781 35.6875 166.925781 C 34.855469 167.179688 34.035156 167.179688 33.125 167.15625 C 27.785156 167.019531 22.503906 166.515625 16.972656 165.613281 L 16.574219 165.550781 L 16.363281 165.203125 C 15.199219 163.277344 14.808594 160.726562 15.261719 158.019531 C 15.65625 155.671875 16.585938 153.492188 17.484375 151.390625 C 18.011719 150.148438 18.613281 148.738281 19.753906 147.695312 C 20.835938 146.699219 22.285156 146.253906 23.617188 146.464844 C 24.449219 145.054688 25.175781 144.191406 26.210938 142.957031 C 26.410156 142.722656 26.621094 142.472656 26.847656 142.199219 C 27.730469 140.015625 28.660156 138.742188 30.046875 137.820312 C 31.402344 136.914062 32.570312 136.644531 34.359375 136.515625 C 35.402344 134.429688 36.808594 132.539062 38.460938 130.992188 C 37.816406 128.761719 37.238281 126.492188 36.730469 124.230469 L 35.304688 123.523438 L 35.355469 122.933594 C 35.433594 121.988281 35.511719 120.988281 35.574219 120.15625 C 32.425781 122.589844 28.414062 124.414062 24.414062 125.207031 C 24.390625 125.527344 24.355469 125.84375 24.300781 126.160156 C 25.824219 127.015625 27.269531 128.015625 28.605469 129.148438 C 29.140625 129.601562 29.734375 130.152344 30 130.957031 C 30.285156 131.832031 30.074219 132.707031 29.890625 133.292969 C 28.851562 136.597656 25.925781 139.058594 22.496094 139.578125 C 21.984375 140.96875 20.578125 142.386719 18.308594 142.699219 C 16.523438 142.945312 14.1875 142.410156 12.351562 141.914062 C 9.34375 141.101562 7.554688 140.378906 5.523438 138.445312 C 4.109375 137.097656 2.957031 135.1875 2.277344 133.0625 C 1.703125 131.257812 1.589844 130.222656 1.398438 128.503906 L 1.359375 128.175781 C 1.253906 127.238281 1.289062 125.289062 1.476562 124.351562 C 1.632812 123.554688 2.007812 122.738281 2.644531 121.800781 C 2.4375 116.226562 5.464844 111.097656 7.90625 106.960938 C 9.007812 105.09375 10.148438 103.164062 11.757812 101.570312 C 13.453125 99.890625 15.316406 98.902344 17.191406 98.675781 C 17.222656 98.507812 17.253906 98.351562 17.304688 98.167969 L 17.449219 97.617188 L 18.011719 97.53125 C 20.027344 97.214844 21.984375 97.652344 23.820312 98.21875 C 26.679688 96.152344 30.316406 95.109375 33.84375 95.3125 L 33.582031 94.582031 L 34.339844 94.257812 C 34.671875 94.117188 34.988281 93.992188 35.296875 93.875 C 35.601562 93.753906 35.894531 93.640625 36.171875 93.523438 C 28.625 90.71875 23.828125 87.621094 19.101562 83.890625 C 14.453125 81.746094 10.222656 78.960938 6.53125 75.613281 L 6.390625 75.488281 L 6.316406 75.316406 C 1.664062 64.535156 1.398438 51.464844 5.609375 41.210938 L 5.691406 41.015625 L 5.851562 40.878906 C 8.835938 38.324219 12.800781 36.582031 17.957031 35.558594 C 23.710938 28.175781 31.316406 21.996094 39.964844 17.671875 C 48.507812 13.402344 57.894531 11.027344 67.160156 10.792969 L 67.160156 10.78125 C 67.265625 10.78125 67.375 10.78125 67.484375 10.785156 C 67.59375 10.78125 67.699219 10.78125 67.808594 10.78125 L 67.808594 10.792969 C 77.074219 11.027344 86.460938 13.402344 95 17.671875 C 103.652344 21.992188 111.257812 28.175781 117.011719 35.558594 C 122.167969 36.582031 126.132812 38.324219 129.117188 40.878906 L 129.277344 41.015625 L 129.359375 41.210938 C 133.574219 51.46875 133.304688 64.535156 128.652344 75.316406 L 128.578125 75.488281 L 128.4375 75.613281 C 124.746094 78.960938 120.515625 81.746094 115.867188 83.890625 C 111.140625 87.621094 106.347656 90.71875 98.796875 93.523438 C 99.074219 93.640625 99.367188 93.753906 99.671875 93.875 C 99.980469 93.992188 100.300781 94.117188 100.628906 94.257812 L 101.390625 94.582031 L 101.125 95.3125 C 104.652344 95.109375 108.289062 96.152344 111.148438 98.21875 C 112.984375 97.652344 114.941406 97.214844 116.957031 97.53125 L 117.519531 97.617188 L 117.667969 98.167969 C 117.714844 98.351562 117.746094 98.507812 117.777344 98.675781 C 119.652344 98.902344 121.515625 99.890625 123.210938 101.570312 C 124.820312 103.164062 125.960938 105.09375 127.0625 106.960938 C 129.503906 111.097656 132.53125 116.226562 132.324219 121.800781 C 132.960938 122.738281 133.335938 123.554688 133.492188 124.351562 C 133.679688 125.289062 133.714844 127.238281 133.609375 128.175781 L 133.574219 128.503906 C 133.382812 130.222656 133.265625 131.257812 132.691406 133.058594 C 132.011719 135.1875 130.859375 137.097656 129.445312 138.445312 C 127.417969 140.378906 125.628906 141.101562 122.617188 141.914062 C 120.78125 142.40625 118.445312 142.941406 116.660156 142.695312 C 115.007812 142.46875 113.101562 141.40625 112.464844 139.574219 C 109.039062 139.050781 106.117188 136.589844 105.078125 133.292969 C 104.894531 132.707031 104.683594 131.828125 104.972656 130.957031 C 105.234375 130.152344 105.828125 129.597656 106.367188 129.144531 C 107.699219 128.015625 109.144531 127.011719 110.667969 126.15625 C 110.617188 125.839844 110.578125 125.523438 110.554688 125.203125 C 106.554688 124.410156 102.542969 122.585938 99.394531 120.152344 C 99.457031 120.984375 99.535156 121.984375 99.617188 122.929688 L 99.664062 123.523438 L 98.238281 124.226562 C 97.734375 126.488281 97.152344 128.757812 96.511719 130.988281 C 98.160156 132.535156 99.566406 134.425781 100.609375 136.511719 C 102.398438 136.644531 103.566406 136.910156 104.921875 137.816406 C 106.308594 138.738281 107.238281 140.011719 108.121094 142.195312 C 108.347656 142.46875 108.558594 142.71875 108.757812 142.957031 C 109.792969 144.1875 110.519531 145.050781 111.351562 146.460938 C 112.683594 146.25 114.132812 146.695312 115.21875 147.691406 C 116.355469 148.734375 116.957031 150.144531 117.484375 151.386719 C 118.382812 153.492188 119.3125 155.667969 119.707031 158.015625 C 120.160156 160.722656 119.769531 163.273438 118.605469 165.203125 L 118.394531 165.546875 L 117.996094 165.613281 C 112.46875 166.511719 107.183594 167.015625 101.84375 167.152344 C 101.632812 167.15625 101.429688 167.164062 101.230469 167.164062 Z M 98.4375 163.742188 L 98.664062 164.34375 C 98.8125 164.738281 99.25 165.085938 99.800781 165.253906 C 100.386719 165.429688 101.03125 165.425781 101.8125 165.410156 C 106.9375 165.277344 112.015625 164.804688 117.316406 163.957031 C 118.113281 162.425781 118.355469 160.441406 117.996094 158.308594 C 117.636719 156.164062 116.75 154.085938 115.890625 152.074219 C 115.40625 150.941406 114.910156 149.769531 114.046875 148.980469 C 113.238281 148.238281 112.132812 147.96875 111.234375 148.292969 L 110.535156 148.546875 L 110.171875 147.894531 C 109.273438 146.269531 108.578125 145.449219 107.433594 144.082031 C 107.207031 143.8125 106.964844 143.527344 106.703125 143.210938 L 106.613281 143.101562 L 106.5625 142.972656 C 105.800781 141.042969 105.070312 140.003906 103.96875 139.269531 C 102.824219 138.507812 101.9375 138.335938 100.011719 138.226562 L 99.492188 138.195312 L 99.269531 137.722656 C 98.222656 135.496094 96.730469 133.488281 94.957031 131.925781 L 94.539062 131.554688 L 94.695312 131.023438 C 95.425781 128.53125 96.078125 125.980469 96.636719 123.445312 L 96.726562 123.035156 L 97.839844 122.484375 C 97.800781 122.019531 97.746094 121.339844 97.695312 120.667969 C 97.640625 119.964844 97.601562 119.402344 97.578125 118.996094 C 97.5625 118.746094 97.550781 118.554688 97.550781 118.417969 C 97.53125 117.8125 97.757812 117.449219 98.21875 117.335938 C 98.539062 117.253906 98.863281 117.359375 99.074219 117.589844 C 102.316406 120.589844 106.984375 122.839844 111.570312 123.609375 L 112.304688 123.734375 L 112.296875 124.480469 C 112.289062 125.128906 112.363281 125.777344 112.519531 126.410156 L 112.679688 127.070312 L 112.078125 127.390625 C 110.449219 128.25 108.914062 129.289062 107.511719 130.476562 C 107.140625 130.792969 106.769531 131.128906 106.644531 131.5 C 106.546875 131.800781 106.582031 132.203125 106.761719 132.765625 C 107.648438 135.59375 110.257812 137.660156 113.246094 137.90625 L 113.925781 137.960938 L 114.035156 138.636719 C 114.25 139.933594 115.644531 140.789062 116.910156 140.964844 C 118.386719 141.167969 120.5 140.675781 122.175781 140.226562 C 124.949219 139.480469 126.488281 138.863281 128.253906 137.179688 C 129.441406 136.046875 130.457031 134.351562 131.039062 132.527344 C 131.558594 130.890625 131.664062 129.972656 131.847656 128.308594 L 131.882812 127.980469 C 131.96875 127.207031 131.941406 125.4375 131.789062 124.691406 C 131.667969 124.078125 131.332031 123.398438 130.738281 122.558594 L 130.558594 122.308594 L 130.578125 122.003906 C 130.878906 116.839844 127.933594 111.855469 125.566406 107.847656 C 124.523438 106.078125 123.441406 104.246094 121.992188 102.808594 C 120.882812 101.710938 119.117188 100.394531 117.015625 100.371094 L 116.273438 100.363281 L 116.164062 99.628906 C 116.140625 99.496094 116.125 99.378906 116.109375 99.277344 C 116.105469 99.246094 116.101562 99.214844 116.097656 99.1875 C 114.398438 99.070312 112.722656 99.546875 111.261719 100.019531 L 110.824219 100.160156 L 110.460938 99.878906 C 107.542969 97.625 103.621094 96.617188 99.976562 97.191406 L 98.519531 97.417969 L 99.1875 95.554688 C 99.140625 95.539062 99.09375 95.519531 99.046875 95.5 C 98.03125 95.105469 97.074219 94.730469 96.195312 94 L 95.003906 93.007812 L 96.46875 92.5 C 104.867188 89.597656 109.902344 86.382812 114.875 82.453125 L 114.957031 82.390625 L 115.054688 82.34375 C 119.515625 80.296875 123.582031 77.640625 127.132812 74.445312 C 131.5 64.1875 131.765625 51.820312 127.828125 42.070312 C 125.035156 39.738281 121.28125 38.148438 116.367188 37.210938 L 116.039062 37.148438 L 115.835938 36.886719 C 110.21875 29.59375 102.746094 23.492188 94.226562 19.234375 C 85.828125 15.035156 76.589844 12.722656 67.488281 12.53125 C 58.390625 12.722656 49.152344 15.035156 40.753906 19.234375 C 32.234375 23.492188 24.761719 29.59375 19.144531 36.886719 L 18.941406 37.148438 L 18.613281 37.210938 C 13.699219 38.148438 9.945312 39.738281 7.148438 42.070312 C 3.214844 51.820312 3.480469 64.1875 7.847656 74.445312 C 11.402344 77.640625 15.460938 80.296875 19.925781 82.34375 L 20.023438 82.390625 L 20.105469 82.453125 C 25.078125 86.386719 30.113281 89.597656 38.511719 92.5 L 39.976562 93.007812 L 38.785156 94 C 37.90625 94.730469 36.949219 95.105469 35.933594 95.5 C 35.886719 95.519531 35.839844 95.539062 35.789062 95.554688 L 36.460938 97.417969 L 35.003906 97.191406 C 31.359375 96.617188 27.441406 97.625 24.519531 99.878906 L 24.15625 100.160156 L 23.714844 100.019531 C 22.257812 99.546875 20.585938 99.070312 18.882812 99.1875 C 18.878906 99.214844 18.875 99.246094 18.871094 99.277344 C 18.855469 99.378906 18.839844 99.496094 18.816406 99.628906 L 18.707031 100.363281 L 17.964844 100.371094 C 15.863281 100.394531 14.097656 101.710938 12.988281 102.808594 C 11.539062 104.246094 10.457031 106.078125 9.414062 107.847656 C 7.046875 111.855469 4.101562 116.839844 4.402344 122.003906 L 4.421875 122.308594 L 4.242188 122.558594 C 3.648438 123.398438 3.3125 124.078125 3.1875 124.691406 C 3.039062 125.4375 3.011719 127.207031 3.097656 127.980469 L 3.132812 128.308594 C 3.316406 129.972656 3.417969 130.890625 3.941406 132.527344 C 4.523438 134.351562 5.539062 136.046875 6.726562 137.179688 C 8.492188 138.863281 10.027344 139.476562 12.804688 140.226562 C 14.480469 140.675781 16.59375 141.167969 18.070312 140.964844 C 19.335938 140.789062 20.730469 139.933594 20.941406 138.636719 L 21.054688 137.960938 L 21.734375 137.90625 C 24.722656 137.660156 27.328125 135.59375 28.21875 132.765625 C 28.394531 132.203125 28.433594 131.800781 28.335938 131.5 C 28.210938 131.128906 27.839844 130.789062 27.46875 130.476562 C 26.066406 129.289062 24.527344 128.25 22.902344 127.390625 L 22.300781 127.070312 L 22.460938 126.410156 C 22.617188 125.777344 22.691406 125.128906 22.683594 124.480469 L 22.675781 123.734375 L 23.414062 123.609375 C 27.996094 122.839844 32.664062 120.589844 35.90625 117.589844 C 36.117188 117.359375 36.445312 117.253906 36.761719 117.335938 C 37.222656 117.449219 37.445312 117.8125 37.433594 118.417969 C 37.429688 118.554688 37.417969 118.746094 37.402344 118.996094 C 37.378906 119.402344 37.339844 119.964844 37.289062 120.667969 C 37.234375 121.339844 37.179688 122.019531 37.144531 122.484375 L 38.253906 123.035156 L 38.34375 123.445312 C 38.902344 125.980469 39.554688 128.53125 40.285156 131.023438 L 40.445312 131.554688 L 40.027344 131.925781 C 38.25 133.488281 36.757812 135.496094 35.714844 137.722656 L 35.492188 138.195312 L 34.96875 138.226562 C 33.042969 138.335938 32.15625 138.507812 31.011719 139.269531 C 29.910156 140.003906 29.179688 141.042969 28.417969 142.972656 L 28.367188 143.101562 L 28.277344 143.210938 C 28.015625 143.527344 27.773438 143.8125 27.546875 144.082031 C 26.402344 145.445312 25.710938 146.269531 24.808594 147.894531 L 24.445312 148.546875 L 23.746094 148.292969 C 22.847656 147.964844 21.742188 148.234375 20.933594 148.980469 C 20.070312 149.769531 19.570312 150.941406 19.089844 152.074219 C 18.230469 154.085938 17.34375 156.164062 16.984375 158.308594 C 16.625 160.4375 16.871094 162.425781 17.667969 163.953125 C 22.96875 164.800781 28.042969 165.277344 33.167969 165.40625 C 33.949219 165.425781 34.59375 165.429688 35.179688 165.25 C 35.734375 165.085938 36.167969 164.738281 36.316406 164.34375 L 36.546875 163.738281 L 37.1875 163.78125 C 43.445312 164.167969 49.652344 163.953125 55.648438 163.144531 C 55.703125 160.8125 55.5625 158.464844 55.226562 156.15625 C 55.125 155.621094 55.046875 155.179688 54.976562 154.792969 C 54.804688 153.867188 54.695312 153.253906 54.480469 152.40625 C 54.4375 152.242188 54.398438 152.078125 54.359375 151.921875 C 54.078125 150.796875 53.859375 149.910156 53.4375 149.144531 C 52.992188 148.324219 52.167969 147.84375 51.183594 147.832031 L 49.839844 147.8125 L 50.402344 146.59375 C 50.945312 145.414062 51.097656 144.105469 50.84375 142.8125 L 50.773438 142.472656 L 50.960938 142.179688 C 51.863281 140.746094 51.964844 138.800781 51.21875 137.222656 L 50.476562 135.648438 L 52.183594 135.996094 C 53.707031 136.304688 54.960938 136.425781 56.652344 136.425781 L 56.976562 136.425781 L 57.222656 136.636719 C 59.648438 138.730469 62.289062 139.816406 65.300781 139.960938 L 69.675781 139.960938 C 72.6875 139.816406 75.328125 138.730469 77.753906 136.636719 L 78 136.425781 L 78.324219 136.425781 C 80.015625 136.425781 81.269531 136.304688 82.792969 135.996094 L 84.5 135.648438 L 83.757812 137.222656 C 83.011719 138.800781 83.113281 140.746094 84.015625 142.179688 L 84.199219 142.472656 L 84.132812 142.8125 C 83.878906 144.105469 84.03125 145.414062 84.574219 146.59375 L 85.136719 147.8125 L 83.789062 147.832031 C 82.804688 147.84375 81.984375 148.324219 81.539062 149.144531 C 81.117188 149.910156 80.898438 150.796875 80.617188 151.921875 C 80.578125 152.078125 80.539062 152.242188 80.496094 152.40625 C 80.28125 153.253906 80.171875 153.867188 80 154.792969 C 79.929688 155.179688 79.851562 155.621094 79.75 156.15625 C 79.414062 158.464844 79.273438 160.8125 79.328125 163.144531 C 85.324219 163.957031 91.53125 164.167969 97.789062 163.78125 L 98.429688 163.742188 Z M 98.4375 163.742188 " fill-opacity="1" fill-rule="nonzero"/></g><path fill="#000000" d="M 70.121094 100.433594 L 64.839844 100.433594 C 55.132812 99.816406 46.300781 96.992188 35.765625 93.363281 L 36.335938 91.710938 C 46.734375 95.292969 55.441406 98.082031 64.921875 98.6875 L 70.066406 98.6875 C 79.542969 98.082031 88.253906 95.292969 98.652344 91.710938 L 99.21875 93.363281 C 88.683594 96.992188 79.851562 99.816406 70.148438 100.433594 L 70.117188 100.433594 Z M 70.121094 100.433594 " fill-opacity="1" fill-rule="nonzero"/><path fill="#000000" d="M 70.980469 90.765625 L 63.980469 90.765625 C 51.367188 90.097656 40.742188 87.558594 31.496094 83 C 28.519531 81.53125 25.921875 79.363281 23.984375 76.722656 C 22.003906 74.027344 20.75 70.890625 20.363281 67.644531 C 19.609375 61.386719 19.949219 54.597656 21.367188 47.46875 C 22.222656 43.175781 25.835938 39.859375 30.359375 39.226562 C 41.3125 37.6875 52.8125 36.886719 64.539062 36.847656 L 70.449219 36.847656 C 82.179688 36.886719 93.679688 37.6875 104.632812 39.226562 C 109.152344 39.863281 112.765625 43.175781 113.621094 47.46875 C 115.042969 54.597656 115.378906 61.386719 114.628906 67.644531 C 114.238281 70.886719 112.988281 74.027344 111.007812 76.722656 C 109.070312 79.363281 106.472656 81.53125 103.496094 83 C 94.25 87.558594 83.625 90.097656 71.011719 90.765625 Z M 64.0625 88.667969 L 70.925781 88.667969 C 83.238281 88.015625 93.585938 85.546875 102.566406 81.121094 C 105.242188 79.800781 107.578125 77.851562 109.316406 75.480469 C 111.082031 73.078125 112.199219 70.28125 112.542969 67.398438 C 113.269531 61.355469 112.9375 54.789062 111.5625 47.878906 C 110.882812 44.457031 107.976562 41.816406 104.335938 41.304688 C 93.480469 39.777344 82.074219 38.984375 70.441406 38.949219 L 64.539062 38.949219 C 52.910156 38.984375 41.507812 39.777344 30.648438 41.304688 C 27.007812 41.816406 24.105469 44.460938 23.425781 47.878906 C 22.046875 54.789062 21.71875 61.355469 22.441406 67.398438 C 22.789062 70.28125 23.90625 73.078125 25.671875 75.480469 C 27.410156 77.851562 29.746094 79.800781 32.421875 81.121094 C 41.398438 85.546875 51.75 88.015625 64.058594 88.667969 Z M 64.0625 88.667969 " fill-opacity="1" fill-rule="nonzero"/><path fill="#000000" d="M 18.75 83.445312 C 15.855469 75.714844 14.234375 67.335938 14.066406 59.210938 C 13.894531 50.722656 15.230469 42.753906 18.042969 35.519531 L 19.671875 36.15625 C 16.941406 43.171875 15.644531 50.917969 15.816406 59.175781 C 15.980469 67.105469 17.558594 75.285156 20.386719 82.832031 Z M 18.75 83.445312 " fill-opacity="1" fill-rule="nonzero"/><path fill="#000000" d="M 9.460938 77.625 C 7.378906 64.894531 7.265625 51.96875 9.125 39.207031 L 10.851562 39.457031 C 9.019531 52.042969 9.132812 64.789062 11.1875 77.34375 Z M 9.460938 77.625 " fill-opacity="1" fill-rule="nonzero"/><g clip-path="url(#ae7f62360e)"><path fill="#000000" d="M 69.914062 138.949219 L 65.046875 138.949219 L 64.699219 138.921875 C 61.753906 138.71875 58.976562 138.53125 57.140625 136.277344 C 55.144531 133.832031 53.910156 130.300781 53.367188 127.578125 C 47.621094 126.953125 41.699219 126.25 35.890625 123.804688 L 35.285156 123.550781 L 35.363281 122.898438 C 36.132812 116.304688 37.40625 107.75 40.449219 100.007812 L 40.589844 99.648438 L 40.949219 99.511719 C 43.503906 98.535156 46.203125 97.835938 49.210938 97.378906 L 49.554688 97.324219 L 49.839844 97.523438 C 54.148438 100.507812 59.222656 102.144531 64.160156 102.144531 C 64.226562 102.144531 64.292969 102.144531 64.363281 102.144531 L 70.617188 102.144531 C 75.625 102.191406 80.78125 100.546875 85.148438 97.523438 L 85.433594 97.328125 L 85.777344 97.378906 C 88.78125 97.839844 91.484375 98.535156 94.035156 99.511719 L 94.394531 99.648438 L 94.535156 100.007812 C 97.578125 107.75 98.855469 116.308594 99.625 122.898438 L 99.699219 123.550781 L 99.09375 123.808594 C 93.289062 126.253906 87.367188 126.957031 81.621094 127.578125 C 81.074219 130.300781 79.839844 133.835938 77.847656 136.277344 C 76.011719 138.53125 73.230469 138.722656 70.289062 138.925781 L 69.910156 138.949219 Z M 65.136719 137.203125 L 69.851562 137.203125 L 70.167969 137.179688 C 72.835938 136.996094 75.136719 136.839844 76.492188 135.171875 C 78.4375 132.792969 79.605469 129.085938 80.019531 126.636719 L 80.128906 125.984375 L 80.785156 125.910156 C 86.40625 125.304688 92.210938 124.679688 97.8125 122.445312 C 97.058594 116.160156 95.824219 108.21875 93.050781 101.011719 C 90.820312 100.1875 88.457031 99.578125 85.851562 99.160156 C 81.253906 102.261719 75.847656 103.941406 70.609375 103.894531 L 64.371094 103.894531 C 64.296875 103.894531 64.226562 103.894531 64.152344 103.894531 C 58.984375 103.894531 53.667969 102.21875 49.132812 99.160156 C 46.53125 99.578125 44.167969 100.183594 41.933594 101.011719 C 39.164062 108.214844 37.929688 116.160156 37.175781 122.445312 C 42.777344 124.679688 48.582031 125.304688 54.199219 125.910156 L 54.859375 125.980469 L 54.96875 126.632812 C 55.378906 129.085938 56.550781 132.789062 58.492188 135.171875 C 59.851562 136.835938 62.152344 136.996094 64.816406 137.179688 L 65.136719 137.199219 Z M 65.136719 137.203125 " fill-opacity="1" fill-rule="nonzero"/></g><path fill="#000000" d="M 48.792969 113.113281 C 46.414062 113.113281 44.480469 111.179688 44.480469 108.800781 C 44.480469 106.425781 46.414062 104.492188 48.792969 104.492188 C 51.171875 104.492188 53.105469 106.425781 53.105469 108.800781 C 53.105469 111.179688 51.171875 113.113281 48.792969 113.113281 Z M 48.792969 105.890625 C 47.1875 105.890625 45.878906 107.195312 45.878906 108.800781 C 45.878906 110.410156 47.1875 111.714844 48.792969 111.714844 C 50.398438 111.714844 51.707031 110.410156 51.707031 108.800781 C 51.707031 107.195312 50.398438 105.890625 48.792969 105.890625 Z M 48.792969 105.890625 " fill-opacity="1" fill-rule="nonzero"/><path fill="#000000" d="M 81.441406 119.988281 L 53.546875 119.988281 L 53.414062 119.871094 C 51.117188 117.847656 49.191406 115.472656 47.691406 112.804688 L 48.503906 112.347656 C 49.925781 114.871094 51.742188 117.128906 53.902344 119.054688 L 81.089844 119.054688 C 83.25 117.128906 85.066406 114.871094 86.488281 112.347656 L 87.300781 112.804688 C 85.796875 115.472656 83.871094 117.847656 81.574219 119.871094 L 81.445312 119.988281 Z M 81.441406 119.988281 " fill-opacity="1" fill-rule="nonzero"/><path fill="#000000" d="M 50.238281 115.339844 L 84.753906 115.339844 L 84.753906 116.273438 L 50.238281 116.273438 Z M 50.238281 115.339844 " fill-opacity="1" fill-rule="nonzero"/><path fill="#000000" d="M 21.0625 118.960938 L 20.136719 118.863281 C 20.65625 113.886719 23.046875 109.070312 26.703125 105.652344 L 27.339844 106.332031 C 23.847656 109.597656 21.5625 114.203125 21.0625 118.957031 Z M 21.0625 118.960938 " fill-opacity="1" fill-rule="nonzero"/><path fill="#000000" d="M 24.707031 108.597656 C 21.21875 105.191406 16.234375 103.355469 11.367188 103.6875 L 11.304688 102.757812 C 16.429688 102.40625 21.683594 104.339844 25.355469 107.933594 L 24.703125 108.597656 Z M 24.707031 108.597656 " fill-opacity="1" fill-rule="nonzero"/><g clip-path="url(#3309fcf84d)"><path fill="#000000" d="M 22.902344 125.617188 C 16.746094 123.234375 10.035156 122.425781 3.488281 123.269531 L 3.371094 122.347656 C 10.070312 121.480469 16.9375 122.308594 23.238281 124.746094 Z M 22.902344 125.617188 " fill-opacity="1" fill-rule="nonzero"/></g><g clip-path="url(#56ba522956)"><path fill="#000000" d="M 23.648438 125.113281 C 20.691406 123.40625 17.289062 122.277344 13.8125 121.84375 C 10.332031 121.410156 6.757812 121.675781 3.472656 122.605469 L 3.21875 121.707031 C 6.621094 120.742188 10.328125 120.472656 13.925781 120.917969 C 17.527344 121.367188 21.050781 122.539062 24.113281 124.304688 Z M 23.648438 125.113281 " fill-opacity="1" fill-rule="nonzero"/></g><path fill="#000000" d="M 31.714844 106.304688 C 30.785156 103.289062 29.347656 100.484375 27.441406 97.972656 L 28.183594 97.410156 C 30.15625 100.011719 31.644531 102.910156 32.605469 106.03125 L 31.710938 106.304688 Z M 31.714844 106.304688 " fill-opacity="1" fill-rule="nonzero"/><path fill="#000000" d="M 78.863281 34.730469 L 56.125 34.730469 C 55.070312 34.730469 54.082031 34.3125 53.347656 33.554688 C 52.605469 32.792969 52.214844 31.785156 52.246094 30.71875 C 52.402344 25.167969 51.890625 19.519531 50.761719 14.386719 L 51.671875 14.183594 C 52.816406 19.394531 53.335938 25.121094 53.175781 30.746094 C 53.152344 31.558594 53.453125 32.328125 54.015625 32.90625 C 54.574219 33.480469 55.324219 33.796875 56.125 33.796875 L 78.863281 33.796875 C 79.664062 33.796875 80.414062 33.480469 80.972656 32.90625 C 81.535156 32.328125 81.832031 31.558594 81.808594 30.746094 C 81.648438 25.121094 82.167969 19.394531 83.3125 14.183594 L 84.222656 14.386719 C 83.09375 19.519531 82.582031 25.167969 82.742188 30.71875 C 82.769531 31.785156 82.378906 32.792969 81.636719 33.554688 C 80.902344 34.3125 79.917969 34.730469 78.863281 34.730469 Z M 78.863281 34.730469 " fill-opacity="1" fill-rule="nonzero"/></svg>